<?xml version="1.0" encoding="UTF-8" standalone="no"?>
<svg width="275.167mm" height="123.825mm"
 xmlns="http://www.w3.org/2000/svg" xmlns:xlink="http://www.w3.org/1999/xlink"  version="1.2" baseProfile="tiny">
<title>Qt SVG Document</title>
<desc>Generated with Qt</desc>
<defs>
</defs>
<g fill="none" stroke="black" stroke-width="1" fill-rule="evenodd" stroke-linecap="square" stroke-linejoin="bevel" >

<g fill="none" stroke="#000000" stroke-opacity="1" stroke-width="1" stroke-linecap="square" stroke-linejoin="bevel" transform="matrix(1,0,0,1,0,0)"
font-family="Ubuntu" font-size="11" font-weight="400" font-style="normal" 
>
</g>

<g fill="none" stroke="#000000" stroke-opacity="1" stroke-width="1" stroke-linecap="square" stroke-linejoin="bevel" transform="matrix(1,0,0,1,0,0)"
font-family="Ubuntu" font-size="11" font-weight="400" font-style="normal" 
>
</g>

<g fill="none" stroke="#000000" stroke-opacity="1" stroke-width="1" stroke-linecap="square" stroke-linejoin="bevel" transform="matrix(2,0,0,2,-8e-05,351)"
font-family="Ubuntu" font-size="11" font-weight="400" font-style="normal" 
>
</g>

<g fill="#ffffff" fill-opacity="1" stroke="none" transform="matrix(2,0,0,2,-8e-05,351)"
font-family="Ubuntu" font-size="11" font-weight="400" font-style="normal" 
>
<rect x="4e-05" y="-175.5" width="389.884" height="175.5"/>
</g>

<g fill="none" stroke="#000000" stroke-opacity="1" stroke-width="1" stroke-linecap="square" stroke-linejoin="bevel" transform="matrix(2,0,0,2,-8e-05,351)"
font-family="Ubuntu" font-size="11" font-weight="400" font-style="normal" 
>
</g>

<g fill="none" stroke="#000000" stroke-opacity="1" stroke-width="1" stroke-linecap="square" stroke-linejoin="bevel" transform="matrix(2,0,0,2,-8e-05,351)"
font-family="Ubuntu" font-size="11" font-weight="400" font-style="normal" 
>
</g>

<g fill="none" stroke="#000000" stroke-opacity="1" stroke-width="1" stroke-linecap="square" stroke-linejoin="bevel" transform="matrix(2,0,0,2,-8e-05,351)"
font-family="Ubuntu" font-size="11" font-weight="400" font-style="normal" 
>
</g>

<g fill="none" stroke="#000000" stroke-opacity="1" stroke-width="1" stroke-linecap="square" stroke-linejoin="bevel" transform="matrix(2,0,0,2,-8e-05,351)"
font-family="Ubuntu" font-size="11" font-weight="400" font-style="normal" 
>
</g>

<g fill="none" stroke="#000000" stroke-opacity="1" stroke-width="1" stroke-linecap="square" stroke-linejoin="round" transform="matrix(2,0,0,2,-8e-05,351)"
font-family="Ubuntu" font-size="11" font-weight="400" font-style="normal" 
>
<rect x="76.894" y="-175" width="122.996" height="129"/>
</g>

<g fill="none" stroke="#000000" stroke-opacity="1" stroke-width="1" stroke-linecap="square" stroke-linejoin="bevel" transform="matrix(2,0,0,2,-8e-05,351)"
font-family="Ubuntu" font-size="11" font-weight="400" font-style="normal" 
>
</g>

<g fill="none" stroke="#000000" stroke-opacity="1" stroke-width="1" stroke-linecap="square" stroke-linejoin="bevel" transform="matrix(2,0,0,2,236.171,10)"
font-family="Ubuntu" font-size="11" font-weight="400" font-style="normal" 
>
</g>

<g fill="none" stroke="#000000" stroke-opacity="1" stroke-width="1" stroke-linecap="square" stroke-linejoin="bevel" transform="matrix(2,0,0,2,236.171,10)"
font-family="sans" font-size="11" font-weight="100" font-style="normal" 
>
</g>

<g fill="#000000" fill-opacity="1" stroke="#000000" stroke-opacity="1" stroke-width="1" stroke-linecap="square" stroke-linejoin="round" transform="matrix(2,0,0,2,236.171,10)"
font-family="sans" font-size="11" font-weight="100" font-style="normal" 
>
<path vector-effect="none" fill-rule="nonzero" d="M2.96875,2.98438 L3.53125,2.98438 L0.734375,12.0156 L0.171875,12.0156 L2.96875,2.98438 M5.46875,3.28125 L5.46875,4.98438 L7.5,4.98438 L7.5,5.40625 L5.46875,5.40625 L5.46875,9.01563 C5.46875,9.47396 5.52604,9.79688 5.64063,9.98438 C5.89063,10.3802 6.25,10.5781 6.71875,10.5781 L7.5,10.5781 L7.5,11 L6.73438,11 C6.24479,11 5.82813,10.8568 5.48438,10.5703 C5.14063,10.2839 4.96875,9.76563 4.96875,9.01563 L4.96875,5.40625 L4.25,5.40625 L4.25,4.98438 L4.96875,4.98438 L4.96875,3.28125 L5.46875,3.28125 M9.20313,8.60938 L9.20313,4.98438 L9.6875,4.98438 L9.6875,8.57813 C9.6875,9.35938 9.8125,9.90885 10.0625,10.2266 C10.3125,10.5443 10.6823,10.7031 11.1719,10.7031 C11.7448,10.7031 12.2344,10.5313 12.6406,10.1875 C13.0469,9.84375 13.25,9.24479 13.25,8.39063 L13.25,4.98438 L13.7344,4.98438 L13.7344,11 L13.25,11 L13.25,9.875 C13.0729,10.2396 12.8385,10.5156 12.5469,10.7031 C12.1302,10.9948 11.6667,11.1406 11.1563,11.1406 C10.5625,11.1406 10.0885,10.9375 9.73438,10.5313 C9.38021,10.1354 9.20313,9.49479 9.20313,8.60938 M19.5,5.40625 C19.4167,5.36458 19.3073,5.33333 19.1719,5.3125 C19.0469,5.29167 18.8958,5.28125 18.7188,5.28125 C18.1042,5.28125 17.599,5.50521 17.2031,5.95313 C16.8802,6.31771 16.7188,6.94271 16.7188,7.82813 L16.7188,11 L16.2344,11 L16.2344,4.98438 L16.7188,4.98438 L16.7188,6.10938 C16.8854,5.78646 17.1146,5.51563 17.4063,5.29688 C17.8021,4.99479 18.2708,4.84375 18.8125,4.84375 C18.9583,4.84375 19.0833,4.84896 19.1875,4.85938 C19.2917,4.85938 19.3958,4.86979 19.5,4.89063 L19.5,5.40625 M21.2656,3.28125 L21.2656,4.98438 L23.2969,4.98438 L23.2969,5.40625 L21.2656,5.40625 L21.2656,9.01563 C21.2656,9.47396 21.3229,9.79688 21.4375,9.98438 C21.6875,10.3802 22.0469,10.5781 22.5156,10.5781 L23.2969,10.5781 L23.2969,11 L22.5313,11 C22.0417,11 21.625,10.8568 21.2813,10.5703 C20.9375,10.2839 20.7656,9.76563 20.7656,9.01563 L20.7656,5.40625 L20.0469,5.40625 L20.0469,4.98438 L20.7656,4.98438 L20.7656,3.28125 L21.2656,3.28125 M25.0625,2.64063 L25.5469,2.64063 L25.5469,11 L25.0625,11 L25.0625,2.64063 M32.7969,7.75 L32.7969,8.0625 L28.2344,8.0625 C28.2344,9.02083 28.4219,9.69792 28.7969,10.0938 C29.2135,10.5208 29.8281,10.7344 30.6406,10.7344 C30.8594,10.7344 31.1458,10.6875 31.5,10.5938 C31.8542,10.5 32.2083,10.3594 32.5625,10.1719 L32.5625,10.6875 C32.2083,10.8438 31.8464,10.9609 31.4766,11.0391 C31.1068,11.1172 30.8125,11.1563 30.5938,11.1563 C29.6667,11.1563 28.9688,10.9063 28.5,10.4063 C27.9896,9.875 27.7344,9.09375 27.7344,8.0625 C27.7344,6.98958 27.9635,6.1875 28.4219,5.65625 C28.901,5.11458 29.5677,4.84375 30.4219,4.84375 C31.2031,4.84375 31.7969,5.10417 32.2031,5.625 C32.599,6.16667 32.7969,6.875 32.7969,7.75 M32.2969,7.64063 C32.2969,6.79688 32.1042,6.18229 31.7188,5.79688 C31.4063,5.45313 30.974,5.28125 30.4219,5.28125 C29.8281,5.28125 29.3281,5.45833 28.9219,5.8125 C28.5469,6.14583 28.3229,6.75521 28.25,7.64063 L32.2969,7.64063 M35.2656,10.5625 L37.0313,10.5625 L37.0313,3.46875 L34.8281,4.35938 L34.8281,3.85938 L37.0156,2.98438 L37.5625,2.98438 L37.5625,10.5625 L39.3438,10.5625 L39.3438,11 L35.2656,11 L35.2656,10.5625"/>
</g>

<g fill="none" stroke="#000000" stroke-opacity="1" stroke-width="1" stroke-linecap="square" stroke-linejoin="bevel" transform="matrix(2,0,0,2,236.171,10)"
font-family="sans" font-size="11" font-weight="100" font-style="normal" 
>
</g>

<g fill="none" stroke="#000000" stroke-opacity="1" stroke-width="1" stroke-linecap="square" stroke-linejoin="bevel" transform="matrix(2,0,0,2,236.171,10)"
font-family="Ubuntu" font-size="11" font-weight="400" font-style="normal" 
>
</g>

<g fill="none" stroke="#000000" stroke-opacity="1" stroke-width="1" stroke-linecap="square" stroke-linejoin="bevel" transform="matrix(2,0,0,2,-8e-05,351)"
font-family="Ubuntu" font-size="11" font-weight="400" font-style="normal" 
>
</g>

<g fill="none" stroke="#000000" stroke-opacity="1" stroke-width="1" stroke-linecap="square" stroke-linejoin="bevel" transform="matrix(2,0,0,2,-8e-05,351)"
font-family="Ubuntu" font-size="11" font-weight="400" font-style="normal" 
>
</g>

<g fill="none" stroke="#000000" stroke-opacity="1" stroke-width="1" stroke-linecap="square" stroke-linejoin="bevel" transform="matrix(2,0,0,2,-8e-05,351)"
font-family="Ubuntu" font-size="11" font-weight="400" font-style="normal" 
>
</g>

<g fill="none" stroke="#000000" stroke-opacity="1" stroke-width="1" stroke-linecap="square" stroke-linejoin="round" transform="matrix(2,0,0,2,-8e-05,351)"
font-family="Ubuntu" font-size="11" font-weight="400" font-style="normal" 
>
<rect x="85.3904" y="-143.5" width="105.999" height="35"/>
</g>

<g fill="none" stroke="#000000" stroke-opacity="1" stroke-width="1" stroke-linecap="square" stroke-linejoin="bevel" transform="matrix(2,0,0,2,-8e-05,351)"
font-family="Ubuntu" font-size="11" font-weight="400" font-style="normal" 
>
</g>

<g fill="none" stroke="#000000" stroke-opacity="1" stroke-width="1" stroke-linecap="square" stroke-linejoin="bevel" transform="matrix(2,0,0,2,186.936,85)"
font-family="Ubuntu" font-size="11" font-weight="400" font-style="normal" 
>
</g>

<g fill="none" stroke="#000000" stroke-opacity="1" stroke-width="1" stroke-linecap="square" stroke-linejoin="bevel" transform="matrix(2,0,0,2,186.936,85)"
font-family="sans" font-size="11" font-weight="100" font-style="normal" 
>
</g>

<g fill="#000000" fill-opacity="1" stroke="#000000" stroke-opacity="1" stroke-width="1" stroke-linecap="square" stroke-linejoin="round" transform="matrix(2,0,0,2,186.936,85)"
font-family="sans" font-size="11" font-weight="100" font-style="normal" 
>
<path vector-effect="none" fill-rule="nonzero" d="M2.96875,2.98438 L3.53125,2.98438 L0.734375,12.0156 L0.171875,12.0156 L2.96875,2.98438 M5.46875,3.28125 L5.46875,4.98438 L7.5,4.98438 L7.5,5.40625 L5.46875,5.40625 L5.46875,9.01563 C5.46875,9.47396 5.52604,9.79688 5.64063,9.98438 C5.89063,10.3802 6.25,10.5781 6.71875,10.5781 L7.5,10.5781 L7.5,11 L6.73438,11 C6.24479,11 5.82813,10.8568 5.48438,10.5703 C5.14063,10.2839 4.96875,9.76563 4.96875,9.01563 L4.96875,5.40625 L4.25,5.40625 L4.25,4.98438 L4.96875,4.98438 L4.96875,3.28125 L5.46875,3.28125 M9.20313,8.60938 L9.20313,4.98438 L9.6875,4.98438 L9.6875,8.57813 C9.6875,9.35938 9.8125,9.90885 10.0625,10.2266 C10.3125,10.5443 10.6823,10.7031 11.1719,10.7031 C11.7448,10.7031 12.2344,10.5313 12.6406,10.1875 C13.0469,9.84375 13.25,9.24479 13.25,8.39063 L13.25,4.98438 L13.7344,4.98438 L13.7344,11 L13.25,11 L13.25,9.875 C13.0729,10.2396 12.8385,10.5156 12.5469,10.7031 C12.1302,10.9948 11.6667,11.1406 11.1563,11.1406 C10.5625,11.1406 10.0885,10.9375 9.73438,10.5313 C9.38021,10.1354 9.20313,9.49479 9.20313,8.60938 M19.5,5.40625 C19.4167,5.36458 19.3073,5.33333 19.1719,5.3125 C19.0469,5.29167 18.8958,5.28125 18.7188,5.28125 C18.1042,5.28125 17.599,5.50521 17.2031,5.95313 C16.8802,6.31771 16.7188,6.94271 16.7188,7.82813 L16.7188,11 L16.2344,11 L16.2344,4.98438 L16.7188,4.98438 L16.7188,6.10938 C16.8854,5.78646 17.1146,5.51563 17.4063,5.29688 C17.8021,4.99479 18.2708,4.84375 18.8125,4.84375 C18.9583,4.84375 19.0833,4.84896 19.1875,4.85938 C19.2917,4.85938 19.3958,4.86979 19.5,4.89063 L19.5,5.40625 M21.2656,3.28125 L21.2656,4.98438 L23.2969,4.98438 L23.2969,5.40625 L21.2656,5.40625 L21.2656,9.01563 C21.2656,9.47396 21.3229,9.79688 21.4375,9.98438 C21.6875,10.3802 22.0469,10.5781 22.5156,10.5781 L23.2969,10.5781 L23.2969,11 L22.5313,11 C22.0417,11 21.625,10.8568 21.2813,10.5703 C20.9375,10.2839 20.7656,9.76563 20.7656,9.01563 L20.7656,5.40625 L20.0469,5.40625 L20.0469,4.98438 L20.7656,4.98438 L20.7656,3.28125 L21.2656,3.28125 M25.0625,2.64063 L25.5469,2.64063 L25.5469,11 L25.0625,11 L25.0625,2.64063 M32.7969,7.75 L32.7969,8.0625 L28.2344,8.0625 C28.2344,9.02083 28.4219,9.69792 28.7969,10.0938 C29.2135,10.5208 29.8281,10.7344 30.6406,10.7344 C30.8594,10.7344 31.1458,10.6875 31.5,10.5938 C31.8542,10.5 32.2083,10.3594 32.5625,10.1719 L32.5625,10.6875 C32.2083,10.8438 31.8464,10.9609 31.4766,11.0391 C31.1068,11.1172 30.8125,11.1563 30.5938,11.1563 C29.6667,11.1563 28.9688,10.9063 28.5,10.4063 C27.9896,9.875 27.7344,9.09375 27.7344,8.0625 C27.7344,6.98958 27.9635,6.1875 28.4219,5.65625 C28.901,5.11458 29.5677,4.84375 30.4219,4.84375 C31.2031,4.84375 31.7969,5.10417 32.2031,5.625 C32.599,6.16667 32.7969,6.875 32.7969,7.75 M32.2969,7.64063 C32.2969,6.79688 32.1042,6.18229 31.7188,5.79688 C31.4063,5.45313 30.974,5.28125 30.4219,5.28125 C29.8281,5.28125 29.3281,5.45833 28.9219,5.8125 C28.5469,6.14583 28.3229,6.75521 28.25,7.64063 L32.2969,7.64063 M35.2656,10.5625 L37.0313,10.5625 L37.0313,3.46875 L34.8281,4.35938 L34.8281,3.85938 L37.0156,2.98438 L37.5625,2.98438 L37.5625,10.5625 L39.3438,10.5625 L39.3438,11 L35.2656,11 L35.2656,10.5625 M43.5781,2.98438 L44.1406,2.98438 L41.3438,12.0156 L40.7813,12.0156 L43.5781,2.98438 M49.6719,5.28125 L49.6719,5.79688 C49.3802,5.61979 49.1354,5.5 48.9375,5.4375 C48.6042,5.33333 48.2865,5.28125 47.9844,5.28125 C47.1198,5.28125 46.5,5.5026 46.125,5.94531 C45.75,6.38802 45.5625,7.07292 45.5625,8 C45.5625,8.9375 45.75,9.6276 46.125,10.0703 C46.5,10.513 47.1198,10.7344 47.9844,10.7344 C48.276,10.7344 48.5573,10.6927 48.8281,10.6094 C49.1198,10.5365 49.401,10.4219 49.6719,10.2656 L49.6719,10.7656 C49.401,10.901 49.1198,11 48.8281,11.0625 C48.526,11.125 48.2292,11.1563 47.9375,11.1563 C47.0625,11.1563 46.3646,10.9167 45.8438,10.4375 C45.3229,9.95833 45.0625,9.14323 45.0625,7.99219 C45.0625,6.84115 45.3229,6.02604 45.8438,5.54688 C46.3646,5.07813 47.0625,4.84375 47.9375,4.84375 C48.2292,4.84375 48.5365,4.88542 48.8594,4.96875 C49.1823,5.04167 49.4531,5.14583 49.6719,5.28125 M55.9375,6.29688 C56.125,5.80729 56.4167,5.44271 56.8125,5.20313 C57.1979,4.96354 57.651,4.84375 58.1719,4.84375 C58.6927,4.84375 59.1094,5.02604 59.4219,5.39063 C59.7448,5.75521 59.9063,6.41667 59.9063,7.375 L59.9063,11 L59.4219,11 L59.4219,7.40625 C59.4219,6.57292 59.3073,6.01042 59.0781,5.71875 C58.849,5.42708 58.5417,5.28125 58.1563,5.28125 C57.6042,5.28125 57.1198,5.44792 56.7031,5.78125 C56.2344,6.15625 56,6.76042 56,7.59375 L56,11 L55.5156,11 L55.5156,7.40625 C55.5156,6.60417 55.4036,6.04948 55.1797,5.74219 C54.9557,5.4349 54.6458,5.28125 54.25,5.28125 C53.6979,5.28125 53.2135,5.45313 52.7969,5.79688 C52.3281,6.16146 52.0938,6.76042 52.0938,7.59375 L52.0938,11 L51.6094,11 L51.6094,4.98438 L52.0938,4.98438 L52.0938,6.10938 C52.2708,5.71354 52.5469,5.40104 52.9219,5.17188 C53.2865,4.95313 53.7396,4.84375 54.2813,4.84375 C54.6354,4.84375 54.974,4.95833 55.2969,5.1875 C55.5469,5.375 55.7604,5.74479 55.9375,6.29688 M66.3125,6.35938 L66.3125,2.64063 L66.7813,2.64063 L66.7813,11 L66.3125,11 L66.3125,9.64063 C66.0833,10.1615 65.8333,10.5156 65.5625,10.7031 C65.1667,11.0052 64.7865,11.1563 64.4219,11.1563 C63.7135,11.1563 63.1224,10.8672 62.6484,10.2891 C62.1745,9.71094 61.9375,8.94792 61.9375,8 C61.9375,7.05208 62.1745,6.28906 62.6484,5.71094 C63.1224,5.13281 63.7135,4.84375 64.4219,4.84375 C64.7865,4.84375 65.1667,4.98958 65.5625,5.28125 C65.8333,5.47917 66.0833,5.83854 66.3125,6.35938 M63.0781,5.90625 C62.6615,6.32292 62.4531,7.02083 62.4531,8 C62.4531,8.97917 62.6615,9.67708 63.0781,10.0938 C63.4948,10.5104 63.9323,10.7188 64.3906,10.7188 C64.8385,10.7188 65.2708,10.5104 65.6875,10.0938 C66.0938,9.67708 66.2969,8.97917 66.2969,8 C66.2969,7.02083 66.0938,6.32292 65.6875,5.90625 C65.2708,5.48958 64.8385,5.28125 64.3906,5.28125 C63.9323,5.28125 63.4948,5.48958 63.0781,5.90625 M73.6406,13.1719 L73.6406,13.5938 L67.9219,13.5938 L67.9219,13.1719 L73.6406,13.1719 M74.2344,4.98438 L74.75,4.98438 L76.7813,10.4531 L78.8281,4.98438 L79.3438,4.98438 L77.1094,11 L76.4688,11 L74.2344,4.98438 M85.9688,7.75 L85.9688,8.0625 L81.4063,8.0625 C81.4063,9.02083 81.5938,9.69792 81.9688,10.0938 C82.3854,10.5208 83,10.7344 83.8125,10.7344 C84.0313,10.7344 84.3177,10.6875 84.6719,10.5938 C85.026,10.5 85.3802,10.3594 85.7344,10.1719 L85.7344,10.6875 C85.3802,10.8438 85.0182,10.9609 84.6484,11.0391 C84.2786,11.1172 83.9844,11.1563 83.7656,11.1563 C82.8385,11.1563 82.1406,10.9063 81.6719,10.4063 C81.1615,9.875 80.9063,9.09375 80.9063,8.0625 C80.9063,6.98958 81.1354,6.1875 81.5938,5.65625 C82.0729,5.11458 82.7396,4.84375 83.5938,4.84375 C84.375,4.84375 84.9688,5.10417 85.375,5.625 C85.7708,6.16667 85.9688,6.875 85.9688,7.75 M85.4688,7.64063 C85.4688,6.79688 85.276,6.18229 84.8906,5.79688 C84.5781,5.45313 84.1458,5.28125 83.5938,5.28125 C83,5.28125 82.5,5.45833 82.0938,5.8125 C81.7188,6.14583 81.4948,6.75521 81.4219,7.64063 L85.4688,7.64063 M88.0469,2.64063 L88.5313,2.64063 L88.5313,11 L88.0469,11 L88.0469,2.64063"/>
</g>

<g fill="none" stroke="#000000" stroke-opacity="1" stroke-width="1" stroke-linecap="square" stroke-linejoin="bevel" transform="matrix(2,0,0,2,186.936,85)"
font-family="sans" font-size="11" font-weight="100" font-style="normal" 
>
</g>

<g fill="none" stroke="#000000" stroke-opacity="1" stroke-width="1" stroke-linecap="square" stroke-linejoin="bevel" transform="matrix(2,0,0,2,186.936,85)"
font-family="Ubuntu" font-size="11" font-weight="400" font-style="normal" 
>
</g>

<g fill="none" stroke="#000000" stroke-opacity="1" stroke-width="1" stroke-linecap="square" stroke-linejoin="bevel" transform="matrix(2,0,0,2,-8e-05,351)"
font-family="Ubuntu" font-size="11" font-weight="400" font-style="normal" 
>
</g>

<g fill="none" stroke="#000000" stroke-opacity="1" stroke-width="1" stroke-linecap="square" stroke-linejoin="bevel" transform="matrix(2,0,0,2,-8e-05,351)"
font-family="Ubuntu" font-size="11" font-weight="400" font-style="normal" 
>
</g>

<g fill="none" stroke="#000000" stroke-opacity="1" stroke-width="1" stroke-linecap="square" stroke-linejoin="bevel" transform="matrix(2,0,0,2,-8e-05,351)"
font-family="Ubuntu" font-size="11" font-weight="400" font-style="normal" 
>
</g>

<g fill="none" stroke="#000000" stroke-opacity="1" stroke-width="1" stroke-linecap="square" stroke-linejoin="round" transform="matrix(2,0,0,2,-8e-05,351)"
font-family="Ubuntu" font-size="11" font-weight="400" font-style="normal" 
>
<rect x="96.8888" y="-89.5" width="83.0024" height="35"/>
</g>

<g fill="none" stroke="#000000" stroke-opacity="1" stroke-width="1" stroke-linecap="square" stroke-linejoin="bevel" transform="matrix(2,0,0,2,-8e-05,351)"
font-family="Ubuntu" font-size="11" font-weight="400" font-style="normal" 
>
</g>

<g fill="none" stroke="#000000" stroke-opacity="1" stroke-width="1" stroke-linecap="square" stroke-linejoin="bevel" transform="matrix(2,0,0,2,206.296,193)"
font-family="Ubuntu" font-size="11" font-weight="400" font-style="normal" 
>
</g>

<g fill="none" stroke="#000000" stroke-opacity="1" stroke-width="1" stroke-linecap="square" stroke-linejoin="bevel" transform="matrix(2,0,0,2,206.296,193)"
font-family="sans" font-size="11" font-weight="100" font-style="normal" 
>
</g>

<g fill="#000000" fill-opacity="1" stroke="#000000" stroke-opacity="1" stroke-width="1" stroke-linecap="square" stroke-linejoin="round" transform="matrix(2,0,0,2,206.296,193)"
font-family="sans" font-size="11" font-weight="100" font-style="normal" 
>
<path vector-effect="none" fill-rule="nonzero" d="M2.96875,2.98438 L3.53125,2.98438 L0.734375,12.0156 L0.171875,12.0156 L2.96875,2.98438 M5.46875,3.28125 L5.46875,4.98438 L7.5,4.98438 L7.5,5.40625 L5.46875,5.40625 L5.46875,9.01563 C5.46875,9.47396 5.52604,9.79688 5.64063,9.98438 C5.89063,10.3802 6.25,10.5781 6.71875,10.5781 L7.5,10.5781 L7.5,11 L6.73438,11 C6.24479,11 5.82813,10.8568 5.48438,10.5703 C5.14063,10.2839 4.96875,9.76563 4.96875,9.01563 L4.96875,5.40625 L4.25,5.40625 L4.25,4.98438 L4.96875,4.98438 L4.96875,3.28125 L5.46875,3.28125 M9.20313,8.60938 L9.20313,4.98438 L9.6875,4.98438 L9.6875,8.57813 C9.6875,9.35938 9.8125,9.90885 10.0625,10.2266 C10.3125,10.5443 10.6823,10.7031 11.1719,10.7031 C11.7448,10.7031 12.2344,10.5313 12.6406,10.1875 C13.0469,9.84375 13.25,9.24479 13.25,8.39063 L13.25,4.98438 L13.7344,4.98438 L13.7344,11 L13.25,11 L13.25,9.875 C13.0729,10.2396 12.8385,10.5156 12.5469,10.7031 C12.1302,10.9948 11.6667,11.1406 11.1563,11.1406 C10.5625,11.1406 10.0885,10.9375 9.73438,10.5313 C9.38021,10.1354 9.20313,9.49479 9.20313,8.60938 M19.5,5.40625 C19.4167,5.36458 19.3073,5.33333 19.1719,5.3125 C19.0469,5.29167 18.8958,5.28125 18.7188,5.28125 C18.1042,5.28125 17.599,5.50521 17.2031,5.95313 C16.8802,6.31771 16.7188,6.94271 16.7188,7.82813 L16.7188,11 L16.2344,11 L16.2344,4.98438 L16.7188,4.98438 L16.7188,6.10938 C16.8854,5.78646 17.1146,5.51563 17.4063,5.29688 C17.8021,4.99479 18.2708,4.84375 18.8125,4.84375 C18.9583,4.84375 19.0833,4.84896 19.1875,4.85938 C19.2917,4.85938 19.3958,4.86979 19.5,4.89063 L19.5,5.40625 M21.2656,3.28125 L21.2656,4.98438 L23.2969,4.98438 L23.2969,5.40625 L21.2656,5.40625 L21.2656,9.01563 C21.2656,9.47396 21.3229,9.79688 21.4375,9.98438 C21.6875,10.3802 22.0469,10.5781 22.5156,10.5781 L23.2969,10.5781 L23.2969,11 L22.5313,11 C22.0417,11 21.625,10.8568 21.2813,10.5703 C20.9375,10.2839 20.7656,9.76563 20.7656,9.01563 L20.7656,5.40625 L20.0469,5.40625 L20.0469,4.98438 L20.7656,4.98438 L20.7656,3.28125 L21.2656,3.28125 M25.0625,2.64063 L25.5469,2.64063 L25.5469,11 L25.0625,11 L25.0625,2.64063 M32.7969,7.75 L32.7969,8.0625 L28.2344,8.0625 C28.2344,9.02083 28.4219,9.69792 28.7969,10.0938 C29.2135,10.5208 29.8281,10.7344 30.6406,10.7344 C30.8594,10.7344 31.1458,10.6875 31.5,10.5938 C31.8542,10.5 32.2083,10.3594 32.5625,10.1719 L32.5625,10.6875 C32.2083,10.8438 31.8464,10.9609 31.4766,11.0391 C31.1068,11.1172 30.8125,11.1563 30.5938,11.1563 C29.6667,11.1563 28.9688,10.9063 28.5,10.4063 C27.9896,9.875 27.7344,9.09375 27.7344,8.0625 C27.7344,6.98958 27.9635,6.1875 28.4219,5.65625 C28.901,5.11458 29.5677,4.84375 30.4219,4.84375 C31.2031,4.84375 31.7969,5.10417 32.2031,5.625 C32.599,6.16667 32.7969,6.875 32.7969,7.75 M32.2969,7.64063 C32.2969,6.79688 32.1042,6.18229 31.7188,5.79688 C31.4063,5.45313 30.974,5.28125 30.4219,5.28125 C29.8281,5.28125 29.3281,5.45833 28.9219,5.8125 C28.5469,6.14583 28.3229,6.75521 28.25,7.64063 L32.2969,7.64063 M35.2656,10.5625 L37.0313,10.5625 L37.0313,3.46875 L34.8281,4.35938 L34.8281,3.85938 L37.0156,2.98438 L37.5625,2.98438 L37.5625,10.5625 L39.3438,10.5625 L39.3438,11 L35.2656,11 L35.2656,10.5625 M43.5781,2.98438 L44.1406,2.98438 L41.3438,12.0156 L40.7813,12.0156 L43.5781,2.98438 M46.0469,9.64063 L46.0469,13.2813 L45.5625,13.2813 L45.5625,4.98438 L46.0469,4.98438 L46.0469,6.35938 C46.276,5.83854 46.5208,5.47917 46.7813,5.28125 C47.1875,4.98958 47.5729,4.84375 47.9375,4.84375 C48.6458,4.84375 49.237,5.13281 49.7109,5.71094 C50.1849,6.28906 50.4219,7.05208 50.4219,8 C50.4219,8.94792 50.1849,9.71094 49.7109,10.2891 C49.237,10.8672 48.6458,11.1563 47.9375,11.1563 C47.5729,11.1563 47.1875,11.0052 46.7813,10.7031 C46.5208,10.5156 46.276,10.1615 46.0469,9.64063 M49.2813,10.0938 C49.6979,9.67708 49.9063,8.97917 49.9063,8 C49.9063,7.02083 49.6979,6.32292 49.2813,5.90625 C48.8646,5.48958 48.4271,5.28125 47.9688,5.28125 C47.5208,5.28125 47.0885,5.48958 46.6719,5.90625 C46.2656,6.32292 46.0625,7.02083 46.0625,8 C46.0625,8.97917 46.2656,9.67708 46.6719,10.0938 C47.0885,10.5104 47.5208,10.7188 47.9688,10.7188 C48.4271,10.7188 48.8646,10.5104 49.2813,10.0938 M56.1094,6.01563 C55.7552,5.52604 55.2708,5.28125 54.6563,5.28125 C54.0417,5.28125 53.5573,5.52604 53.2031,6.01563 C52.849,6.49479 52.6719,7.15104 52.6719,7.98438 C52.6719,8.83854 52.849,9.51042 53.2031,10 C53.5573,10.4896 54.0417,10.7344 54.6563,10.7344 C55.2708,10.7344 55.7552,10.4896 56.1094,10 C56.4635,9.5 56.6406,8.82813 56.6406,7.98438 C56.6406,7.16146 56.4635,6.50521 56.1094,6.01563 M54.6563,4.84375 C55.4167,4.84375 56.0208,5.13021 56.4688,5.70313 C56.9167,6.27604 57.1406,7.03646 57.1406,7.98438 C57.1406,8.97396 56.9167,9.75521 56.4688,10.3281 C56.0208,10.901 55.4167,11.1875 54.6563,11.1875 C53.875,11.1875 53.2604,10.901 52.8125,10.3281 C52.375,9.75521 52.1563,8.97396 52.1563,7.98438 C52.1563,7.02604 52.3802,6.26302 52.8281,5.69531 C53.276,5.1276 53.8854,4.84375 54.6563,4.84375 M62.6563,5.15625 L62.6563,5.70313 C62.3021,5.50521 62.0833,5.39583 62,5.375 C61.75,5.32292 61.4375,5.29167 61.0625,5.28125 C60.5,5.28125 60.0573,5.39063 59.7344,5.60938 C59.4844,5.79688 59.3594,6.11458 59.3594,6.5625 C59.3594,6.875 59.4792,7.11458 59.7188,7.28125 C59.9583,7.46875 60.3073,7.61458 60.7656,7.71875 L61.1094,7.78125 C61.6823,7.90625 62.1146,8.08333 62.4063,8.3125 C62.75,8.58333 62.9271,8.92708 62.9375,9.34375 C62.9375,9.90625 62.7708,10.349 62.4375,10.6719 C62.0833,10.9948 61.5052,11.1563 60.7031,11.1563 C60.2656,11.1563 59.9323,11.125 59.7031,11.0625 C59.4219,10.9896 59.1302,10.8958 58.8281,10.7813 L58.8281,10.1563 C59.2656,10.4063 59.5469,10.5521 59.6719,10.5938 C60.026,10.6875 60.3802,10.7344 60.7344,10.7344 C61.3073,10.7344 61.7344,10.6146 62.0156,10.375 C62.2969,10.125 62.4375,9.80729 62.4375,9.42188 C62.4375,9.08854 62.3438,8.84896 62.1563,8.70313 C61.8854,8.48438 61.4583,8.30729 60.875,8.17188 L60.5313,8.09375 C60.0208,7.96875 59.6354,7.80208 59.375,7.59375 C59.0417,7.32292 58.875,6.99479 58.875,6.60938 C58.875,5.98438 59.0755,5.53385 59.4766,5.25781 C59.8776,4.98177 60.3698,4.84375 60.9531,4.84375 C61.4531,4.84375 61.7969,4.86979 61.9844,4.92188 C62.2135,4.98438 62.4375,5.0625 62.6563,5.15625 M69.6563,7.75 L69.6563,8.0625 L65.0938,8.0625 C65.0938,9.02083 65.2813,9.69792 65.6563,10.0938 C66.0729,10.5208 66.6875,10.7344 67.5,10.7344 C67.7188,10.7344 68.0052,10.6875 68.3594,10.5938 C68.7135,10.5 69.0677,10.3594 69.4219,10.1719 L69.4219,10.6875 C69.0677,10.8438 68.7057,10.9609 68.3359,11.0391 C67.9661,11.1172 67.6719,11.1563 67.4531,11.1563 C66.526,11.1563 65.8281,10.9063 65.3594,10.4063 C64.849,9.875 64.5938,9.09375 64.5938,8.0625 C64.5938,6.98958 64.8229,6.1875 65.2813,5.65625 C65.7604,5.11458 66.4271,4.84375 67.2813,4.84375 C68.0625,4.84375 68.6563,5.10417 69.0625,5.625 C69.4583,6.16667 69.6563,6.875 69.6563,7.75 M69.1563,7.64063 C69.1563,6.79688 68.9635,6.18229 68.5781,5.79688 C68.2656,5.45313 67.8333,5.28125 67.2813,5.28125 C66.6875,5.28125 66.1875,5.45833 65.7813,5.8125 C65.4063,6.14583 65.1823,6.75521 65.1094,7.64063 L69.1563,7.64063"/>
</g>

<g fill="none" stroke="#000000" stroke-opacity="1" stroke-width="1" stroke-linecap="square" stroke-linejoin="bevel" transform="matrix(2,0,0,2,206.296,193)"
font-family="sans" font-size="11" font-weight="100" font-style="normal" 
>
</g>

<g fill="none" stroke="#000000" stroke-opacity="1" stroke-width="1" stroke-linecap="square" stroke-linejoin="bevel" transform="matrix(2,0,0,2,206.296,193)"
font-family="Ubuntu" font-size="11" font-weight="400" font-style="normal" 
>
</g>

<g fill="none" stroke="#000000" stroke-opacity="1" stroke-width="1" stroke-linecap="square" stroke-linejoin="bevel" transform="matrix(2,0,0,2,-8e-05,351)"
font-family="Ubuntu" font-size="11" font-weight="400" font-style="normal" 
>
</g>

<g fill="none" stroke="#000000" stroke-opacity="1" stroke-width="1" stroke-linecap="square" stroke-linejoin="bevel" transform="matrix(2,0,0,2,-8e-05,351)"
font-family="Ubuntu" font-size="11" font-weight="400" font-style="normal" 
>
</g>

<g fill="none" stroke="#000000" stroke-opacity="1" stroke-width="1" stroke-linecap="square" stroke-linejoin="bevel" transform="matrix(2,0,0,2,-8e-05,351)"
font-family="Ubuntu" font-size="11" font-weight="400" font-style="normal" 
>
</g>

<g fill="none" stroke="#000000" stroke-opacity="1" stroke-width="1" stroke-linecap="square" stroke-linejoin="round" transform="matrix(2,0,0,2,-8e-05,351)"
font-family="Ubuntu" font-size="11" font-weight="400" font-style="normal" 
>
<rect x="85.3904" y="-143.5" width="105.999" height="35"/>
</g>

<g fill="none" stroke="#000000" stroke-opacity="1" stroke-width="1" stroke-linecap="square" stroke-linejoin="bevel" transform="matrix(2,0,0,2,-8e-05,351)"
font-family="Ubuntu" font-size="11" font-weight="400" font-style="normal" 
>
</g>

<g fill="none" stroke="#000000" stroke-opacity="1" stroke-width="1" stroke-linecap="square" stroke-linejoin="bevel" transform="matrix(2,0,0,2,186.936,85)"
font-family="Ubuntu" font-size="11" font-weight="400" font-style="normal" 
>
</g>

<g fill="none" stroke="#000000" stroke-opacity="1" stroke-width="1" stroke-linecap="square" stroke-linejoin="bevel" transform="matrix(2,0,0,2,186.936,85)"
font-family="sans" font-size="11" font-weight="100" font-style="normal" 
>
</g>

<g fill="#000000" fill-opacity="1" stroke="#000000" stroke-opacity="1" stroke-width="1" stroke-linecap="square" stroke-linejoin="round" transform="matrix(2,0,0,2,186.936,85)"
font-family="sans" font-size="11" font-weight="100" font-style="normal" 
>
<path vector-effect="none" fill-rule="nonzero" d="M2.96875,2.98438 L3.53125,2.98438 L0.734375,12.0156 L0.171875,12.0156 L2.96875,2.98438 M5.46875,3.28125 L5.46875,4.98438 L7.5,4.98438 L7.5,5.40625 L5.46875,5.40625 L5.46875,9.01563 C5.46875,9.47396 5.52604,9.79688 5.64063,9.98438 C5.89063,10.3802 6.25,10.5781 6.71875,10.5781 L7.5,10.5781 L7.5,11 L6.73438,11 C6.24479,11 5.82813,10.8568 5.48438,10.5703 C5.14063,10.2839 4.96875,9.76563 4.96875,9.01563 L4.96875,5.40625 L4.25,5.40625 L4.25,4.98438 L4.96875,4.98438 L4.96875,3.28125 L5.46875,3.28125 M9.20313,8.60938 L9.20313,4.98438 L9.6875,4.98438 L9.6875,8.57813 C9.6875,9.35938 9.8125,9.90885 10.0625,10.2266 C10.3125,10.5443 10.6823,10.7031 11.1719,10.7031 C11.7448,10.7031 12.2344,10.5313 12.6406,10.1875 C13.0469,9.84375 13.25,9.24479 13.25,8.39063 L13.25,4.98438 L13.7344,4.98438 L13.7344,11 L13.25,11 L13.25,9.875 C13.0729,10.2396 12.8385,10.5156 12.5469,10.7031 C12.1302,10.9948 11.6667,11.1406 11.1563,11.1406 C10.5625,11.1406 10.0885,10.9375 9.73438,10.5313 C9.38021,10.1354 9.20313,9.49479 9.20313,8.60938 M19.5,5.40625 C19.4167,5.36458 19.3073,5.33333 19.1719,5.3125 C19.0469,5.29167 18.8958,5.28125 18.7188,5.28125 C18.1042,5.28125 17.599,5.50521 17.2031,5.95313 C16.8802,6.31771 16.7188,6.94271 16.7188,7.82813 L16.7188,11 L16.2344,11 L16.2344,4.98438 L16.7188,4.98438 L16.7188,6.10938 C16.8854,5.78646 17.1146,5.51563 17.4063,5.29688 C17.8021,4.99479 18.2708,4.84375 18.8125,4.84375 C18.9583,4.84375 19.0833,4.84896 19.1875,4.85938 C19.2917,4.85938 19.3958,4.86979 19.5,4.89063 L19.5,5.40625 M21.2656,3.28125 L21.2656,4.98438 L23.2969,4.98438 L23.2969,5.40625 L21.2656,5.40625 L21.2656,9.01563 C21.2656,9.47396 21.3229,9.79688 21.4375,9.98438 C21.6875,10.3802 22.0469,10.5781 22.5156,10.5781 L23.2969,10.5781 L23.2969,11 L22.5313,11 C22.0417,11 21.625,10.8568 21.2813,10.5703 C20.9375,10.2839 20.7656,9.76563 20.7656,9.01563 L20.7656,5.40625 L20.0469,5.40625 L20.0469,4.98438 L20.7656,4.98438 L20.7656,3.28125 L21.2656,3.28125 M25.0625,2.64063 L25.5469,2.64063 L25.5469,11 L25.0625,11 L25.0625,2.64063 M32.7969,7.75 L32.7969,8.0625 L28.2344,8.0625 C28.2344,9.02083 28.4219,9.69792 28.7969,10.0938 C29.2135,10.5208 29.8281,10.7344 30.6406,10.7344 C30.8594,10.7344 31.1458,10.6875 31.5,10.5938 C31.8542,10.5 32.2083,10.3594 32.5625,10.1719 L32.5625,10.6875 C32.2083,10.8438 31.8464,10.9609 31.4766,11.0391 C31.1068,11.1172 30.8125,11.1563 30.5938,11.1563 C29.6667,11.1563 28.9688,10.9063 28.5,10.4063 C27.9896,9.875 27.7344,9.09375 27.7344,8.0625 C27.7344,6.98958 27.9635,6.1875 28.4219,5.65625 C28.901,5.11458 29.5677,4.84375 30.4219,4.84375 C31.2031,4.84375 31.7969,5.10417 32.2031,5.625 C32.599,6.16667 32.7969,6.875 32.7969,7.75 M32.2969,7.64063 C32.2969,6.79688 32.1042,6.18229 31.7188,5.79688 C31.4063,5.45313 30.974,5.28125 30.4219,5.28125 C29.8281,5.28125 29.3281,5.45833 28.9219,5.8125 C28.5469,6.14583 28.3229,6.75521 28.25,7.64063 L32.2969,7.64063 M35.2656,10.5625 L37.0313,10.5625 L37.0313,3.46875 L34.8281,4.35938 L34.8281,3.85938 L37.0156,2.98438 L37.5625,2.98438 L37.5625,10.5625 L39.3438,10.5625 L39.3438,11 L35.2656,11 L35.2656,10.5625 M43.5781,2.98438 L44.1406,2.98438 L41.3438,12.0156 L40.7813,12.0156 L43.5781,2.98438 M49.6719,5.28125 L49.6719,5.79688 C49.3802,5.61979 49.1354,5.5 48.9375,5.4375 C48.6042,5.33333 48.2865,5.28125 47.9844,5.28125 C47.1198,5.28125 46.5,5.5026 46.125,5.94531 C45.75,6.38802 45.5625,7.07292 45.5625,8 C45.5625,8.9375 45.75,9.6276 46.125,10.0703 C46.5,10.513 47.1198,10.7344 47.9844,10.7344 C48.276,10.7344 48.5573,10.6927 48.8281,10.6094 C49.1198,10.5365 49.401,10.4219 49.6719,10.2656 L49.6719,10.7656 C49.401,10.901 49.1198,11 48.8281,11.0625 C48.526,11.125 48.2292,11.1563 47.9375,11.1563 C47.0625,11.1563 46.3646,10.9167 45.8438,10.4375 C45.3229,9.95833 45.0625,9.14323 45.0625,7.99219 C45.0625,6.84115 45.3229,6.02604 45.8438,5.54688 C46.3646,5.07813 47.0625,4.84375 47.9375,4.84375 C48.2292,4.84375 48.5365,4.88542 48.8594,4.96875 C49.1823,5.04167 49.4531,5.14583 49.6719,5.28125 M55.9375,6.29688 C56.125,5.80729 56.4167,5.44271 56.8125,5.20313 C57.1979,4.96354 57.651,4.84375 58.1719,4.84375 C58.6927,4.84375 59.1094,5.02604 59.4219,5.39063 C59.7448,5.75521 59.9063,6.41667 59.9063,7.375 L59.9063,11 L59.4219,11 L59.4219,7.40625 C59.4219,6.57292 59.3073,6.01042 59.0781,5.71875 C58.849,5.42708 58.5417,5.28125 58.1563,5.28125 C57.6042,5.28125 57.1198,5.44792 56.7031,5.78125 C56.2344,6.15625 56,6.76042 56,7.59375 L56,11 L55.5156,11 L55.5156,7.40625 C55.5156,6.60417 55.4036,6.04948 55.1797,5.74219 C54.9557,5.4349 54.6458,5.28125 54.25,5.28125 C53.6979,5.28125 53.2135,5.45313 52.7969,5.79688 C52.3281,6.16146 52.0938,6.76042 52.0938,7.59375 L52.0938,11 L51.6094,11 L51.6094,4.98438 L52.0938,4.98438 L52.0938,6.10938 C52.2708,5.71354 52.5469,5.40104 52.9219,5.17188 C53.2865,4.95313 53.7396,4.84375 54.2813,4.84375 C54.6354,4.84375 54.974,4.95833 55.2969,5.1875 C55.5469,5.375 55.7604,5.74479 55.9375,6.29688 M66.3125,6.35938 L66.3125,2.64063 L66.7813,2.64063 L66.7813,11 L66.3125,11 L66.3125,9.64063 C66.0833,10.1615 65.8333,10.5156 65.5625,10.7031 C65.1667,11.0052 64.7865,11.1563 64.4219,11.1563 C63.7135,11.1563 63.1224,10.8672 62.6484,10.2891 C62.1745,9.71094 61.9375,8.94792 61.9375,8 C61.9375,7.05208 62.1745,6.28906 62.6484,5.71094 C63.1224,5.13281 63.7135,4.84375 64.4219,4.84375 C64.7865,4.84375 65.1667,4.98958 65.5625,5.28125 C65.8333,5.47917 66.0833,5.83854 66.3125,6.35938 M63.0781,5.90625 C62.6615,6.32292 62.4531,7.02083 62.4531,8 C62.4531,8.97917 62.6615,9.67708 63.0781,10.0938 C63.4948,10.5104 63.9323,10.7188 64.3906,10.7188 C64.8385,10.7188 65.2708,10.5104 65.6875,10.0938 C66.0938,9.67708 66.2969,8.97917 66.2969,8 C66.2969,7.02083 66.0938,6.32292 65.6875,5.90625 C65.2708,5.48958 64.8385,5.28125 64.3906,5.28125 C63.9323,5.28125 63.4948,5.48958 63.0781,5.90625 M73.6406,13.1719 L73.6406,13.5938 L67.9219,13.5938 L67.9219,13.1719 L73.6406,13.1719 M74.2344,4.98438 L74.75,4.98438 L76.7813,10.4531 L78.8281,4.98438 L79.3438,4.98438 L77.1094,11 L76.4688,11 L74.2344,4.98438 M85.9688,7.75 L85.9688,8.0625 L81.4063,8.0625 C81.4063,9.02083 81.5938,9.69792 81.9688,10.0938 C82.3854,10.5208 83,10.7344 83.8125,10.7344 C84.0313,10.7344 84.3177,10.6875 84.6719,10.5938 C85.026,10.5 85.3802,10.3594 85.7344,10.1719 L85.7344,10.6875 C85.3802,10.8438 85.0182,10.9609 84.6484,11.0391 C84.2786,11.1172 83.9844,11.1563 83.7656,11.1563 C82.8385,11.1563 82.1406,10.9063 81.6719,10.4063 C81.1615,9.875 80.9063,9.09375 80.9063,8.0625 C80.9063,6.98958 81.1354,6.1875 81.5938,5.65625 C82.0729,5.11458 82.7396,4.84375 83.5938,4.84375 C84.375,4.84375 84.9688,5.10417 85.375,5.625 C85.7708,6.16667 85.9688,6.875 85.9688,7.75 M85.4688,7.64063 C85.4688,6.79688 85.276,6.18229 84.8906,5.79688 C84.5781,5.45313 84.1458,5.28125 83.5938,5.28125 C83,5.28125 82.5,5.45833 82.0938,5.8125 C81.7188,6.14583 81.4948,6.75521 81.4219,7.64063 L85.4688,7.64063 M88.0469,2.64063 L88.5313,2.64063 L88.5313,11 L88.0469,11 L88.0469,2.64063"/>
</g>

<g fill="none" stroke="#000000" stroke-opacity="1" stroke-width="1" stroke-linecap="square" stroke-linejoin="bevel" transform="matrix(2,0,0,2,186.936,85)"
font-family="sans" font-size="11" font-weight="100" font-style="normal" 
>
</g>

<g fill="none" stroke="#000000" stroke-opacity="1" stroke-width="1" stroke-linecap="square" stroke-linejoin="bevel" transform="matrix(2,0,0,2,186.936,85)"
font-family="Ubuntu" font-size="11" font-weight="400" font-style="normal" 
>
</g>

<g fill="none" stroke="#000000" stroke-opacity="1" stroke-width="1" stroke-linecap="square" stroke-linejoin="bevel" transform="matrix(2,0,0,2,-8e-05,351)"
font-family="Ubuntu" font-size="11" font-weight="400" font-style="normal" 
>
</g>

<g fill="none" stroke="#000000" stroke-opacity="1" stroke-width="1" stroke-linecap="square" stroke-linejoin="bevel" transform="matrix(2,0,0,2,-8e-05,351)"
font-family="Ubuntu" font-size="11" font-weight="400" font-style="normal" 
>
</g>

<g fill="none" stroke="#000000" stroke-opacity="1" stroke-width="1" stroke-linecap="square" stroke-linejoin="bevel" transform="matrix(2,0,0,2,-8e-05,351)"
font-family="Ubuntu" font-size="11" font-weight="400" font-style="normal" 
>
</g>

<g fill="none" stroke="#000000" stroke-opacity="1" stroke-width="1" stroke-linecap="square" stroke-linejoin="round" transform="matrix(2,0,0,2,-8e-05,351)"
font-family="Ubuntu" font-size="11" font-weight="400" font-style="normal" 
>
<rect x="96.8888" y="-89.5" width="83.0024" height="35"/>
</g>

<g fill="none" stroke="#000000" stroke-opacity="1" stroke-width="1" stroke-linecap="square" stroke-linejoin="bevel" transform="matrix(2,0,0,2,-8e-05,351)"
font-family="Ubuntu" font-size="11" font-weight="400" font-style="normal" 
>
</g>

<g fill="none" stroke="#000000" stroke-opacity="1" stroke-width="1" stroke-linecap="square" stroke-linejoin="bevel" transform="matrix(2,0,0,2,206.296,193)"
font-family="Ubuntu" font-size="11" font-weight="400" font-style="normal" 
>
</g>

<g fill="none" stroke="#000000" stroke-opacity="1" stroke-width="1" stroke-linecap="square" stroke-linejoin="bevel" transform="matrix(2,0,0,2,206.296,193)"
font-family="sans" font-size="11" font-weight="100" font-style="normal" 
>
</g>

<g fill="#000000" fill-opacity="1" stroke="#000000" stroke-opacity="1" stroke-width="1" stroke-linecap="square" stroke-linejoin="round" transform="matrix(2,0,0,2,206.296,193)"
font-family="sans" font-size="11" font-weight="100" font-style="normal" 
>
<path vector-effect="none" fill-rule="nonzero" d="M2.96875,2.98438 L3.53125,2.98438 L0.734375,12.0156 L0.171875,12.0156 L2.96875,2.98438 M5.46875,3.28125 L5.46875,4.98438 L7.5,4.98438 L7.5,5.40625 L5.46875,5.40625 L5.46875,9.01563 C5.46875,9.47396 5.52604,9.79688 5.64063,9.98438 C5.89063,10.3802 6.25,10.5781 6.71875,10.5781 L7.5,10.5781 L7.5,11 L6.73438,11 C6.24479,11 5.82813,10.8568 5.48438,10.5703 C5.14063,10.2839 4.96875,9.76563 4.96875,9.01563 L4.96875,5.40625 L4.25,5.40625 L4.25,4.98438 L4.96875,4.98438 L4.96875,3.28125 L5.46875,3.28125 M9.20313,8.60938 L9.20313,4.98438 L9.6875,4.98438 L9.6875,8.57813 C9.6875,9.35938 9.8125,9.90885 10.0625,10.2266 C10.3125,10.5443 10.6823,10.7031 11.1719,10.7031 C11.7448,10.7031 12.2344,10.5313 12.6406,10.1875 C13.0469,9.84375 13.25,9.24479 13.25,8.39063 L13.25,4.98438 L13.7344,4.98438 L13.7344,11 L13.25,11 L13.25,9.875 C13.0729,10.2396 12.8385,10.5156 12.5469,10.7031 C12.1302,10.9948 11.6667,11.1406 11.1563,11.1406 C10.5625,11.1406 10.0885,10.9375 9.73438,10.5313 C9.38021,10.1354 9.20313,9.49479 9.20313,8.60938 M19.5,5.40625 C19.4167,5.36458 19.3073,5.33333 19.1719,5.3125 C19.0469,5.29167 18.8958,5.28125 18.7188,5.28125 C18.1042,5.28125 17.599,5.50521 17.2031,5.95313 C16.8802,6.31771 16.7188,6.94271 16.7188,7.82813 L16.7188,11 L16.2344,11 L16.2344,4.98438 L16.7188,4.98438 L16.7188,6.10938 C16.8854,5.78646 17.1146,5.51563 17.4063,5.29688 C17.8021,4.99479 18.2708,4.84375 18.8125,4.84375 C18.9583,4.84375 19.0833,4.84896 19.1875,4.85938 C19.2917,4.85938 19.3958,4.86979 19.5,4.89063 L19.5,5.40625 M21.2656,3.28125 L21.2656,4.98438 L23.2969,4.98438 L23.2969,5.40625 L21.2656,5.40625 L21.2656,9.01563 C21.2656,9.47396 21.3229,9.79688 21.4375,9.98438 C21.6875,10.3802 22.0469,10.5781 22.5156,10.5781 L23.2969,10.5781 L23.2969,11 L22.5313,11 C22.0417,11 21.625,10.8568 21.2813,10.5703 C20.9375,10.2839 20.7656,9.76563 20.7656,9.01563 L20.7656,5.40625 L20.0469,5.40625 L20.0469,4.98438 L20.7656,4.98438 L20.7656,3.28125 L21.2656,3.28125 M25.0625,2.64063 L25.5469,2.64063 L25.5469,11 L25.0625,11 L25.0625,2.64063 M32.7969,7.75 L32.7969,8.0625 L28.2344,8.0625 C28.2344,9.02083 28.4219,9.69792 28.7969,10.0938 C29.2135,10.5208 29.8281,10.7344 30.6406,10.7344 C30.8594,10.7344 31.1458,10.6875 31.5,10.5938 C31.8542,10.5 32.2083,10.3594 32.5625,10.1719 L32.5625,10.6875 C32.2083,10.8438 31.8464,10.9609 31.4766,11.0391 C31.1068,11.1172 30.8125,11.1563 30.5938,11.1563 C29.6667,11.1563 28.9688,10.9063 28.5,10.4063 C27.9896,9.875 27.7344,9.09375 27.7344,8.0625 C27.7344,6.98958 27.9635,6.1875 28.4219,5.65625 C28.901,5.11458 29.5677,4.84375 30.4219,4.84375 C31.2031,4.84375 31.7969,5.10417 32.2031,5.625 C32.599,6.16667 32.7969,6.875 32.7969,7.75 M32.2969,7.64063 C32.2969,6.79688 32.1042,6.18229 31.7188,5.79688 C31.4063,5.45313 30.974,5.28125 30.4219,5.28125 C29.8281,5.28125 29.3281,5.45833 28.9219,5.8125 C28.5469,6.14583 28.3229,6.75521 28.25,7.64063 L32.2969,7.64063 M35.2656,10.5625 L37.0313,10.5625 L37.0313,3.46875 L34.8281,4.35938 L34.8281,3.85938 L37.0156,2.98438 L37.5625,2.98438 L37.5625,10.5625 L39.3438,10.5625 L39.3438,11 L35.2656,11 L35.2656,10.5625 M43.5781,2.98438 L44.1406,2.98438 L41.3438,12.0156 L40.7813,12.0156 L43.5781,2.98438 M46.0469,9.64063 L46.0469,13.2813 L45.5625,13.2813 L45.5625,4.98438 L46.0469,4.98438 L46.0469,6.35938 C46.276,5.83854 46.5208,5.47917 46.7813,5.28125 C47.1875,4.98958 47.5729,4.84375 47.9375,4.84375 C48.6458,4.84375 49.237,5.13281 49.7109,5.71094 C50.1849,6.28906 50.4219,7.05208 50.4219,8 C50.4219,8.94792 50.1849,9.71094 49.7109,10.2891 C49.237,10.8672 48.6458,11.1563 47.9375,11.1563 C47.5729,11.1563 47.1875,11.0052 46.7813,10.7031 C46.5208,10.5156 46.276,10.1615 46.0469,9.64063 M49.2813,10.0938 C49.6979,9.67708 49.9063,8.97917 49.9063,8 C49.9063,7.02083 49.6979,6.32292 49.2813,5.90625 C48.8646,5.48958 48.4271,5.28125 47.9688,5.28125 C47.5208,5.28125 47.0885,5.48958 46.6719,5.90625 C46.2656,6.32292 46.0625,7.02083 46.0625,8 C46.0625,8.97917 46.2656,9.67708 46.6719,10.0938 C47.0885,10.5104 47.5208,10.7188 47.9688,10.7188 C48.4271,10.7188 48.8646,10.5104 49.2813,10.0938 M56.1094,6.01563 C55.7552,5.52604 55.2708,5.28125 54.6563,5.28125 C54.0417,5.28125 53.5573,5.52604 53.2031,6.01563 C52.849,6.49479 52.6719,7.15104 52.6719,7.98438 C52.6719,8.83854 52.849,9.51042 53.2031,10 C53.5573,10.4896 54.0417,10.7344 54.6563,10.7344 C55.2708,10.7344 55.7552,10.4896 56.1094,10 C56.4635,9.5 56.6406,8.82813 56.6406,7.98438 C56.6406,7.16146 56.4635,6.50521 56.1094,6.01563 M54.6563,4.84375 C55.4167,4.84375 56.0208,5.13021 56.4688,5.70313 C56.9167,6.27604 57.1406,7.03646 57.1406,7.98438 C57.1406,8.97396 56.9167,9.75521 56.4688,10.3281 C56.0208,10.901 55.4167,11.1875 54.6563,11.1875 C53.875,11.1875 53.2604,10.901 52.8125,10.3281 C52.375,9.75521 52.1563,8.97396 52.1563,7.98438 C52.1563,7.02604 52.3802,6.26302 52.8281,5.69531 C53.276,5.1276 53.8854,4.84375 54.6563,4.84375 M62.6563,5.15625 L62.6563,5.70313 C62.3021,5.50521 62.0833,5.39583 62,5.375 C61.75,5.32292 61.4375,5.29167 61.0625,5.28125 C60.5,5.28125 60.0573,5.39063 59.7344,5.60938 C59.4844,5.79688 59.3594,6.11458 59.3594,6.5625 C59.3594,6.875 59.4792,7.11458 59.7188,7.28125 C59.9583,7.46875 60.3073,7.61458 60.7656,7.71875 L61.1094,7.78125 C61.6823,7.90625 62.1146,8.08333 62.4063,8.3125 C62.75,8.58333 62.9271,8.92708 62.9375,9.34375 C62.9375,9.90625 62.7708,10.349 62.4375,10.6719 C62.0833,10.9948 61.5052,11.1563 60.7031,11.1563 C60.2656,11.1563 59.9323,11.125 59.7031,11.0625 C59.4219,10.9896 59.1302,10.8958 58.8281,10.7813 L58.8281,10.1563 C59.2656,10.4063 59.5469,10.5521 59.6719,10.5938 C60.026,10.6875 60.3802,10.7344 60.7344,10.7344 C61.3073,10.7344 61.7344,10.6146 62.0156,10.375 C62.2969,10.125 62.4375,9.80729 62.4375,9.42188 C62.4375,9.08854 62.3438,8.84896 62.1563,8.70313 C61.8854,8.48438 61.4583,8.30729 60.875,8.17188 L60.5313,8.09375 C60.0208,7.96875 59.6354,7.80208 59.375,7.59375 C59.0417,7.32292 58.875,6.99479 58.875,6.60938 C58.875,5.98438 59.0755,5.53385 59.4766,5.25781 C59.8776,4.98177 60.3698,4.84375 60.9531,4.84375 C61.4531,4.84375 61.7969,4.86979 61.9844,4.92188 C62.2135,4.98438 62.4375,5.0625 62.6563,5.15625 M69.6563,7.75 L69.6563,8.0625 L65.0938,8.0625 C65.0938,9.02083 65.2813,9.69792 65.6563,10.0938 C66.0729,10.5208 66.6875,10.7344 67.5,10.7344 C67.7188,10.7344 68.0052,10.6875 68.3594,10.5938 C68.7135,10.5 69.0677,10.3594 69.4219,10.1719 L69.4219,10.6875 C69.0677,10.8438 68.7057,10.9609 68.3359,11.0391 C67.9661,11.1172 67.6719,11.1563 67.4531,11.1563 C66.526,11.1563 65.8281,10.9063 65.3594,10.4063 C64.849,9.875 64.5938,9.09375 64.5938,8.0625 C64.5938,6.98958 64.8229,6.1875 65.2813,5.65625 C65.7604,5.11458 66.4271,4.84375 67.2813,4.84375 C68.0625,4.84375 68.6563,5.10417 69.0625,5.625 C69.4583,6.16667 69.6563,6.875 69.6563,7.75 M69.1563,7.64063 C69.1563,6.79688 68.9635,6.18229 68.5781,5.79688 C68.2656,5.45313 67.8333,5.28125 67.2813,5.28125 C66.6875,5.28125 66.1875,5.45833 65.7813,5.8125 C65.4063,6.14583 65.1823,6.75521 65.1094,7.64063 L69.1563,7.64063"/>
</g>

<g fill="none" stroke="#000000" stroke-opacity="1" stroke-width="1" stroke-linecap="square" stroke-linejoin="bevel" transform="matrix(2,0,0,2,206.296,193)"
font-family="sans" font-size="11" font-weight="100" font-style="normal" 
>
</g>

<g fill="none" stroke="#000000" stroke-opacity="1" stroke-width="1" stroke-linecap="square" stroke-linejoin="bevel" transform="matrix(2,0,0,2,206.296,193)"
font-family="Ubuntu" font-size="11" font-weight="400" font-style="normal" 
>
</g>

<g fill="none" stroke="#000000" stroke-opacity="1" stroke-width="1" stroke-linecap="square" stroke-linejoin="bevel" transform="matrix(2,0,0,2,-8e-05,351)"
font-family="Ubuntu" font-size="11" font-weight="400" font-style="normal" 
>
</g>

<g fill="none" stroke="#000000" stroke-opacity="1" stroke-width="1" stroke-linecap="square" stroke-linejoin="bevel" transform="matrix(2,0,0,2,-8e-05,351)"
font-family="Ubuntu" font-size="11" font-weight="400" font-style="normal" 
>
</g>

<g fill="none" stroke="#000000" stroke-opacity="1" stroke-width="1" stroke-linecap="square" stroke-linejoin="bevel" transform="matrix(2,0,0,2,-8e-05,351)"
font-family="Ubuntu" font-size="11" font-weight="400" font-style="normal" 
>
</g>

<g fill="none" stroke="#000000" stroke-opacity="1" stroke-width="1" stroke-linecap="square" stroke-linejoin="round" transform="matrix(2,0,0,2,-8e-05,351)"
font-family="Ubuntu" font-size="11" font-weight="400" font-style="normal" 
>
<ellipse cx="298.89" cy="-126" rx="26.5" ry="17.5"/>
</g>

<g fill="none" stroke="#000000" stroke-opacity="1" stroke-width="1" stroke-linecap="square" stroke-linejoin="bevel" transform="matrix(2,0,0,2,-8e-05,351)"
font-family="Ubuntu" font-size="11" font-weight="400" font-style="normal" 
>
</g>

<g fill="none" stroke="#000000" stroke-opacity="1" stroke-width="1" stroke-linecap="square" stroke-linejoin="bevel" transform="matrix(2,0,0,2,574.608,85)"
font-family="Ubuntu" font-size="11" font-weight="400" font-style="normal" 
>
</g>

<g fill="none" stroke="#000000" stroke-opacity="1" stroke-width="1" stroke-linecap="square" stroke-linejoin="bevel" transform="matrix(2,0,0,2,574.608,85)"
font-family="sans" font-size="11" font-weight="100" font-style="normal" 
>
</g>

<g fill="#000000" fill-opacity="1" stroke="#000000" stroke-opacity="1" stroke-width="1" stroke-linecap="square" stroke-linejoin="round" transform="matrix(2,0,0,2,574.608,85)"
font-family="sans" font-size="11" font-weight="100" font-style="normal" 
>
<path vector-effect="none" fill-rule="nonzero" d="M2.96875,2.98438 L3.53125,2.98438 L0.734375,12.0156 L0.171875,12.0156 L2.96875,2.98438 M8.35938,5.15625 L8.35938,5.70313 C8.00521,5.50521 7.78646,5.39583 7.70313,5.375 C7.45313,5.32292 7.14063,5.29167 6.76563,5.28125 C6.20313,5.28125 5.76042,5.39063 5.4375,5.60938 C5.1875,5.79688 5.0625,6.11458 5.0625,6.5625 C5.0625,6.875 5.18229,7.11458 5.42188,7.28125 C5.66146,7.46875 6.01042,7.61458 6.46875,7.71875 L6.8125,7.78125 C7.38542,7.90625 7.81771,8.08333 8.10938,8.3125 C8.45313,8.58333 8.63021,8.92708 8.64063,9.34375 C8.64063,9.90625 8.47396,10.349 8.14063,10.6719 C7.78646,10.9948 7.20833,11.1563 6.40625,11.1563 C5.96875,11.1563 5.63542,11.125 5.40625,11.0625 C5.125,10.9896 4.83333,10.8958 4.53125,10.7813 L4.53125,10.1563 C4.96875,10.4063 5.25,10.5521 5.375,10.5938 C5.72917,10.6875 6.08333,10.7344 6.4375,10.7344 C7.01042,10.7344 7.4375,10.6146 7.71875,10.375 C8,10.125 8.14063,9.80729 8.14063,9.42188 C8.14063,9.08854 8.04688,8.84896 7.85938,8.70313 C7.58854,8.48438 7.16146,8.30729 6.57813,8.17188 L6.23438,8.09375 C5.72396,7.96875 5.33854,7.80208 5.07813,7.59375 C4.74479,7.32292 4.57813,6.99479 4.57813,6.60938 C4.57813,5.98438 4.77865,5.53385 5.17969,5.25781 C5.58073,4.98177 6.07292,4.84375 6.65625,4.84375 C7.15625,4.84375 7.5,4.86979 7.6875,4.92188 C7.91667,4.98438 8.14063,5.0625 8.35938,5.15625 M10.6563,4.98438 L11.1563,4.98438 L11.1563,11 L10.6563,11 L10.6563,4.98438 M10.6563,2.64063 L11.1563,2.64063 L11.1563,3.3125 L10.6563,3.3125 L10.6563,2.64063 M18.0469,6.29688 C18.2344,5.80729 18.526,5.44271 18.9219,5.20313 C19.3073,4.96354 19.7604,4.84375 20.2813,4.84375 C20.8021,4.84375 21.2188,5.02604 21.5313,5.39063 C21.8542,5.75521 22.0156,6.41667 22.0156,7.375 L22.0156,11 L21.5313,11 L21.5313,7.40625 C21.5313,6.57292 21.4167,6.01042 21.1875,5.71875 C20.9583,5.42708 20.651,5.28125 20.2656,5.28125 C19.7135,5.28125 19.2292,5.44792 18.8125,5.78125 C18.3438,6.15625 18.1094,6.76042 18.1094,7.59375 L18.1094,11 L17.625,11 L17.625,7.40625 C17.625,6.60417 17.513,6.04948 17.2891,5.74219 C17.0651,5.4349 16.7552,5.28125 16.3594,5.28125 C15.8073,5.28125 15.3229,5.45313 14.9063,5.79688 C14.4375,6.16146 14.2031,6.76042 14.2031,7.59375 L14.2031,11 L13.7188,11 L13.7188,4.98438 L14.2031,4.98438 L14.2031,6.10938 C14.3802,5.71354 14.6563,5.40104 15.0313,5.17188 C15.3958,4.95313 15.849,4.84375 16.3906,4.84375 C16.7448,4.84375 17.0833,4.95833 17.4063,5.1875 C17.6563,5.375 17.8698,5.74479 18.0469,6.29688 "/>
</g>

<g fill="none" stroke="#000000" stroke-opacity="1" stroke-width="1" stroke-linecap="square" stroke-linejoin="bevel" transform="matrix(2,0,0,2,574.608,85)"
font-family="sans" font-size="11" font-weight="100" font-style="normal" 
>
</g>

<g fill="none" stroke="#000000" stroke-opacity="1" stroke-width="1" stroke-linecap="square" stroke-linejoin="bevel" transform="matrix(2,0,0,2,574.608,85)"
font-family="Ubuntu" font-size="11" font-weight="400" font-style="normal" 
>
</g>

<g fill="none" stroke="#000000" stroke-opacity="1" stroke-width="1" stroke-linecap="square" stroke-linejoin="bevel" transform="matrix(2,0,0,2,-8e-05,351)"
font-family="Ubuntu" font-size="11" font-weight="400" font-style="normal" 
>
</g>

<g fill="none" stroke="#000000" stroke-opacity="1" stroke-width="1" stroke-linecap="square" stroke-linejoin="bevel" transform="matrix(2,0,0,2,-8e-05,351)"
font-family="Ubuntu" font-size="11" font-weight="400" font-style="normal" 
>
</g>

<g fill="none" stroke="#000000" stroke-opacity="1" stroke-width="1" stroke-linecap="square" stroke-linejoin="bevel" transform="matrix(2,0,0,2,-8e-05,351)"
font-family="Ubuntu" font-size="11" font-weight="400" font-style="normal" 
>
</g>

<g fill="none" stroke="#000000" stroke-opacity="1" stroke-width="1" stroke-linecap="square" stroke-linejoin="round" transform="matrix(2,0,0,2,-8e-05,351)"
font-family="Ubuntu" font-size="11" font-weight="400" font-style="normal" 
>
<ellipse cx="298.89" cy="-18" rx="90.4936" ry="17.5"/>
</g>

<g fill="none" stroke="#000000" stroke-opacity="1" stroke-width="1" stroke-linecap="square" stroke-linejoin="bevel" transform="matrix(2,0,0,2,-8e-05,351)"
font-family="Ubuntu" font-size="11" font-weight="400" font-style="normal" 
>
</g>

<g fill="none" stroke="#000000" stroke-opacity="1" stroke-width="1" stroke-linecap="square" stroke-linejoin="bevel" transform="matrix(2,0,0,2,471.999,301)"
font-family="Ubuntu" font-size="11" font-weight="400" font-style="normal" 
>
</g>

<g fill="none" stroke="#000000" stroke-opacity="1" stroke-width="1" stroke-linecap="square" stroke-linejoin="bevel" transform="matrix(2,0,0,2,471.999,301)"
font-family="sans" font-size="11" font-weight="100" font-style="normal" 
>
</g>

<g fill="#000000" fill-opacity="1" stroke="#000000" stroke-opacity="1" stroke-width="1" stroke-linecap="square" stroke-linejoin="round" transform="matrix(2,0,0,2,471.999,301)"
font-family="sans" font-size="11" font-weight="100" font-style="normal" 
>
<path vector-effect="none" fill-rule="nonzero" d="M2.96875,2.98438 L3.53125,2.98438 L0.734375,12.0156 L0.171875,12.0156 L2.96875,2.98438 M5.46875,3.28125 L5.46875,4.98438 L7.5,4.98438 L7.5,5.40625 L5.46875,5.40625 L5.46875,9.01563 C5.46875,9.47396 5.52604,9.79688 5.64063,9.98438 C5.89063,10.3802 6.25,10.5781 6.71875,10.5781 L7.5,10.5781 L7.5,11 L6.73438,11 C6.24479,11 5.82813,10.8568 5.48438,10.5703 C5.14063,10.2839 4.96875,9.76563 4.96875,9.01563 L4.96875,5.40625 L4.25,5.40625 L4.25,4.98438 L4.96875,4.98438 L4.96875,3.28125 L5.46875,3.28125 M9.20313,8.60938 L9.20313,4.98438 L9.6875,4.98438 L9.6875,8.57813 C9.6875,9.35938 9.8125,9.90885 10.0625,10.2266 C10.3125,10.5443 10.6823,10.7031 11.1719,10.7031 C11.7448,10.7031 12.2344,10.5313 12.6406,10.1875 C13.0469,9.84375 13.25,9.24479 13.25,8.39063 L13.25,4.98438 L13.7344,4.98438 L13.7344,11 L13.25,11 L13.25,9.875 C13.0729,10.2396 12.8385,10.5156 12.5469,10.7031 C12.1302,10.9948 11.6667,11.1406 11.1563,11.1406 C10.5625,11.1406 10.0885,10.9375 9.73438,10.5313 C9.38021,10.1354 9.20313,9.49479 9.20313,8.60938 M19.5,5.40625 C19.4167,5.36458 19.3073,5.33333 19.1719,5.3125 C19.0469,5.29167 18.8958,5.28125 18.7188,5.28125 C18.1042,5.28125 17.599,5.50521 17.2031,5.95313 C16.8802,6.31771 16.7188,6.94271 16.7188,7.82813 L16.7188,11 L16.2344,11 L16.2344,4.98438 L16.7188,4.98438 L16.7188,6.10938 C16.8854,5.78646 17.1146,5.51563 17.4063,5.29688 C17.8021,4.99479 18.2708,4.84375 18.8125,4.84375 C18.9583,4.84375 19.0833,4.84896 19.1875,4.85938 C19.2917,4.85938 19.3958,4.86979 19.5,4.89063 L19.5,5.40625 M21.2656,3.28125 L21.2656,4.98438 L23.2969,4.98438 L23.2969,5.40625 L21.2656,5.40625 L21.2656,9.01563 C21.2656,9.47396 21.3229,9.79688 21.4375,9.98438 C21.6875,10.3802 22.0469,10.5781 22.5156,10.5781 L23.2969,10.5781 L23.2969,11 L22.5313,11 C22.0417,11 21.625,10.8568 21.2813,10.5703 C20.9375,10.2839 20.7656,9.76563 20.7656,9.01563 L20.7656,5.40625 L20.0469,5.40625 L20.0469,4.98438 L20.7656,4.98438 L20.7656,3.28125 L21.2656,3.28125 M25.0625,2.64063 L25.5469,2.64063 L25.5469,11 L25.0625,11 L25.0625,2.64063 M32.7969,7.75 L32.7969,8.0625 L28.2344,8.0625 C28.2344,9.02083 28.4219,9.69792 28.7969,10.0938 C29.2135,10.5208 29.8281,10.7344 30.6406,10.7344 C30.8594,10.7344 31.1458,10.6875 31.5,10.5938 C31.8542,10.5 32.2083,10.3594 32.5625,10.1719 L32.5625,10.6875 C32.2083,10.8438 31.8464,10.9609 31.4766,11.0391 C31.1068,11.1172 30.8125,11.1563 30.5938,11.1563 C29.6667,11.1563 28.9688,10.9063 28.5,10.4063 C27.9896,9.875 27.7344,9.09375 27.7344,8.0625 C27.7344,6.98958 27.9635,6.1875 28.4219,5.65625 C28.901,5.11458 29.5677,4.84375 30.4219,4.84375 C31.2031,4.84375 31.7969,5.10417 32.2031,5.625 C32.599,6.16667 32.7969,6.875 32.7969,7.75 M32.2969,7.64063 C32.2969,6.79688 32.1042,6.18229 31.7188,5.79688 C31.4063,5.45313 30.974,5.28125 30.4219,5.28125 C29.8281,5.28125 29.3281,5.45833 28.9219,5.8125 C28.5469,6.14583 28.3229,6.75521 28.25,7.64063 L32.2969,7.64063 M35.2656,10.5625 L37.0313,10.5625 L37.0313,3.46875 L34.8281,4.35938 L34.8281,3.85938 L37.0156,2.98438 L37.5625,2.98438 L37.5625,10.5625 L39.3438,10.5625 L39.3438,11 L35.2656,11 L35.2656,10.5625 M46.2188,13.1719 L46.2188,13.5938 L40.5,13.5938 L40.5,13.1719 L46.2188,13.1719 M47.875,3.28125 L47.875,4.98438 L49.9063,4.98438 L49.9063,5.40625 L47.875,5.40625 L47.875,9.01563 C47.875,9.47396 47.9323,9.79688 48.0469,9.98438 C48.2969,10.3802 48.6563,10.5781 49.125,10.5781 L49.9063,10.5781 L49.9063,11 L49.1406,11 C48.651,11 48.2344,10.8568 47.8906,10.5703 C47.5469,10.2839 47.375,9.76563 47.375,9.01563 L47.375,5.40625 L46.6563,5.40625 L46.6563,4.98438 L47.375,4.98438 L47.375,3.28125 L47.875,3.28125 M54.25,2.64063 L54.25,3.0625 L53.5625,3.0625 C53.1979,3.0625 52.9167,3.15625 52.7188,3.34375 C52.4792,3.57292 52.3594,3.94271 52.3594,4.45313 L52.3594,4.98438 L53.9844,4.98438 L53.9844,5.40625 L52.3594,5.40625 L52.3594,11 L51.8594,11 L51.8594,5.40625 L50.9219,5.40625 L50.9219,4.98438 L51.8594,4.98438 L51.8594,4.5625 C51.8594,3.89583 52.0156,3.41146 52.3281,3.10938 C52.6302,2.79688 53.0417,2.64063 53.5625,2.64063 L54.25,2.64063 M59.8906,13.1719 L59.8906,13.5938 L54.1719,13.5938 L54.1719,13.1719 L59.8906,13.1719 M64.75,10.0938 C65.1667,9.67708 65.375,8.97917 65.375,8 C65.375,7.02083 65.1667,6.32292 64.75,5.90625 C64.3333,5.48958 63.8958,5.28125 63.4375,5.28125 C62.9896,5.28125 62.5573,5.48958 62.1406,5.90625 C61.7344,6.32292 61.5313,7.02083 61.5313,8 C61.5313,8.97917 61.7344,9.67708 62.1406,10.0938 C62.5573,10.5104 62.9896,10.7188 63.4375,10.7188 C63.8958,10.7188 64.3333,10.5104 64.75,10.0938 M61.5156,6.35938 C61.7448,5.83854 61.9896,5.47917 62.25,5.28125 C62.6563,4.98958 63.0417,4.84375 63.4063,4.84375 C64.1146,4.84375 64.7057,5.13281 65.1797,5.71094 C65.6536,6.28906 65.8906,7.05208 65.8906,8 C65.8906,8.94792 65.6536,9.71094 65.1797,10.2891 C64.7057,10.8672 64.1146,11.1563 63.4063,11.1563 C63.0417,11.1563 62.6563,11.0052 62.25,10.7031 C61.9896,10.5156 61.7448,10.1615 61.5156,9.64063 L61.5156,11 L61.0313,11 L61.0313,2.64063 L61.5156,2.64063 L61.5156,6.35938 M71.2656,5.40625 C71.1823,5.36458 71.0729,5.33333 70.9375,5.3125 C70.8125,5.29167 70.6615,5.28125 70.4844,5.28125 C69.8698,5.28125 69.3646,5.50521 68.9688,5.95313 C68.6458,6.31771 68.4844,6.94271 68.4844,7.82813 L68.4844,11 L68,11 L68,4.98438 L68.4844,4.98438 L68.4844,6.10938 C68.651,5.78646 68.8802,5.51563 69.1719,5.29688 C69.5677,4.99479 70.0365,4.84375 70.5781,4.84375 C70.724,4.84375 70.849,4.84896 70.9531,4.85938 C71.0573,4.85938 71.1615,4.86979 71.2656,4.89063 L71.2656,5.40625 M76.0938,6.01563 C75.7396,5.52604 75.2552,5.28125 74.6406,5.28125 C74.026,5.28125 73.5417,5.52604 73.1875,6.01563 C72.8333,6.49479 72.6563,7.15104 72.6563,7.98438 C72.6563,8.83854 72.8333,9.51042 73.1875,10 C73.5417,10.4896 74.026,10.7344 74.6406,10.7344 C75.2552,10.7344 75.7396,10.4896 76.0938,10 C76.4479,9.5 76.625,8.82813 76.625,7.98438 C76.625,7.16146 76.4479,6.50521 76.0938,6.01563 M74.6406,4.84375 C75.401,4.84375 76.0052,5.13021 76.4531,5.70313 C76.901,6.27604 77.125,7.03646 77.125,7.98438 C77.125,8.97396 76.901,9.75521 76.4531,10.3281 C76.0052,10.901 75.401,11.1875 74.6406,11.1875 C73.8594,11.1875 73.2448,10.901 72.7969,10.3281 C72.3594,9.75521 72.1406,8.97396 72.1406,7.98438 C72.1406,7.02604 72.3646,6.26302 72.8125,5.69531 C73.2604,5.1276 73.8698,4.84375 74.6406,4.84375 M81.6406,7.60938 C80.8385,7.60938 80.263,7.75 79.9141,8.03125 C79.5651,8.3125 79.3906,8.72396 79.3906,9.26563 C79.3906,9.79688 79.5365,10.1745 79.8281,10.3984 C80.1198,10.6224 80.4635,10.7344 80.8594,10.7344 C81.6094,10.7344 82.151,10.4167 82.4844,9.78125 C82.8177,9.13542 82.9844,8.53125 82.9844,7.96875 L82.9844,7.60938 L81.6406,7.60938 M83.4844,7.5625 L83.4844,11 L82.9844,11 L82.9844,9.35938 C82.7135,10.1615 82.349,10.6719 81.8906,10.8906 C81.5365,11.0677 81.1771,11.1563 80.8125,11.1563 C80.2188,11.1563 79.75,10.9948 79.4063,10.6719 C79.0625,10.349 78.8906,9.8776 78.8906,9.25781 C78.8906,8.63802 79.1146,8.14063 79.5625,7.76563 C80.0104,7.39063 80.7396,7.20313 81.75,7.20313 L82.9844,7.20313 L82.9844,7.10938 C82.9844,6.57813 82.8281,6.14063 82.5156,5.79688 C82.224,5.45313 81.7292,5.28125 81.0313,5.28125 C80.6875,5.28125 80.3385,5.34375 79.9844,5.46875 C79.7552,5.55208 79.4531,5.71875 79.0781,5.96875 L79.0781,5.4375 C79.401,5.23958 79.7031,5.09896 79.9844,5.01563 C80.3802,4.90104 80.7604,4.84375 81.125,4.84375 C81.8438,4.84375 82.4323,5.05729 82.8906,5.48438 C83.2865,5.84896 83.4844,6.54167 83.4844,7.5625 M89.9688,6.35938 L89.9688,2.64063 L90.4375,2.64063 L90.4375,11 L89.9688,11 L89.9688,9.64063 C89.7396,10.1615 89.4896,10.5156 89.2188,10.7031 C88.8229,11.0052 88.4427,11.1563 88.0781,11.1563 C87.3698,11.1563 86.7786,10.8672 86.3047,10.2891 C85.8307,9.71094 85.5938,8.94792 85.5938,8 C85.5938,7.05208 85.8307,6.28906 86.3047,5.71094 C86.7786,5.13281 87.3698,4.84375 88.0781,4.84375 C88.4427,4.84375 88.8229,4.98958 89.2188,5.28125 C89.4896,5.47917 89.7396,5.83854 89.9688,6.35938 M86.7344,5.90625 C86.3177,6.32292 86.1094,7.02083 86.1094,8 C86.1094,8.97917 86.3177,9.67708 86.7344,10.0938 C87.151,10.5104 87.5885,10.7188 88.0469,10.7188 C88.4948,10.7188 88.9271,10.5104 89.3438,10.0938 C89.75,9.67708 89.9531,8.97917 89.9531,8 C89.9531,7.02083 89.75,6.32292 89.3438,5.90625 C88.9271,5.48958 88.4948,5.28125 88.0469,5.28125 C87.5885,5.28125 87.151,5.48958 86.7344,5.90625 M97.0469,5.28125 L97.0469,5.79688 C96.7552,5.61979 96.5104,5.5 96.3125,5.4375 C95.9792,5.33333 95.6615,5.28125 95.3594,5.28125 C94.4948,5.28125 93.875,5.5026 93.5,5.94531 C93.125,6.38802 92.9375,7.07292 92.9375,8 C92.9375,8.9375 93.125,9.6276 93.5,10.0703 C93.875,10.513 94.4948,10.7344 95.3594,10.7344 C95.651,10.7344 95.9323,10.6927 96.2031,10.6094 C96.4948,10.5365 96.776,10.4219 97.0469,10.2656 L97.0469,10.7656 C96.776,10.901 96.4948,11 96.2031,11.0625 C95.901,11.125 95.6042,11.1563 95.3125,11.1563 C94.4375,11.1563 93.7396,10.9167 93.2188,10.4375 C92.6979,9.95833 92.4375,9.14323 92.4375,7.99219 C92.4375,6.84115 92.6979,6.02604 93.2188,5.54688 C93.7396,5.07813 94.4375,4.84375 95.3125,4.84375 C95.6042,4.84375 95.9115,4.88542 96.2344,4.96875 C96.5573,5.04167 96.8281,5.14583 97.0469,5.28125 M101.391,7.60938 C100.589,7.60938 100.013,7.75 99.6641,8.03125 C99.3151,8.3125 99.1406,8.72396 99.1406,9.26563 C99.1406,9.79688 99.2865,10.1745 99.5781,10.3984 C99.8698,10.6224 100.214,10.7344 100.609,10.7344 C101.359,10.7344 101.901,10.4167 102.234,9.78125 C102.568,9.13542 102.734,8.53125 102.734,7.96875 L102.734,7.60938 L101.391,7.60938 M103.234,7.5625 L103.234,11 L102.734,11 L102.734,9.35938 C102.464,10.1615 102.099,10.6719 101.641,10.8906 C101.286,11.0677 100.927,11.1563 100.563,11.1563 C99.9688,11.1563 99.5,10.9948 99.1563,10.6719 C98.8125,10.349 98.6406,9.8776 98.6406,9.25781 C98.6406,8.63802 98.8646,8.14063 99.3125,7.76563 C99.7604,7.39063 100.49,7.20313 101.5,7.20313 L102.734,7.20313 L102.734,7.10938 C102.734,6.57813 102.578,6.14063 102.266,5.79688 C101.974,5.45313 101.479,5.28125 100.781,5.28125 C100.438,5.28125 100.089,5.34375 99.7344,5.46875 C99.5052,5.55208 99.2031,5.71875 98.8281,5.96875 L98.8281,5.4375 C99.151,5.23958 99.4531,5.09896 99.7344,5.01563 C100.13,4.90104 100.51,4.84375 100.875,4.84375 C101.594,4.84375 102.182,5.05729 102.641,5.48438 C103.036,5.84896 103.234,6.54167 103.234,7.5625 M109.125,5.15625 L109.125,5.70313 C108.771,5.50521 108.552,5.39583 108.469,5.375 C108.219,5.32292 107.906,5.29167 107.531,5.28125 C106.969,5.28125 106.526,5.39063 106.203,5.60938 C105.953,5.79688 105.828,6.11458 105.828,6.5625 C105.828,6.875 105.948,7.11458 106.188,7.28125 C106.427,7.46875 106.776,7.61458 107.234,7.71875 L107.578,7.78125 C108.151,7.90625 108.583,8.08333 108.875,8.3125 C109.219,8.58333 109.396,8.92708 109.406,9.34375 C109.406,9.90625 109.24,10.349 108.906,10.6719 C108.552,10.9948 107.974,11.1563 107.172,11.1563 C106.734,11.1563 106.401,11.125 106.172,11.0625 C105.891,10.9896 105.599,10.8958 105.297,10.7813 L105.297,10.1563 C105.734,10.4063 106.016,10.5521 106.141,10.5938 C106.495,10.6875 106.849,10.7344 107.203,10.7344 C107.776,10.7344 108.203,10.6146 108.484,10.375 C108.766,10.125 108.906,9.80729 108.906,9.42188 C108.906,9.08854 108.813,8.84896 108.625,8.70313 C108.354,8.48438 107.927,8.30729 107.344,8.17188 L107,8.09375 C106.49,7.96875 106.104,7.80208 105.844,7.59375 C105.51,7.32292 105.344,6.99479 105.344,6.60938 C105.344,5.98438 105.544,5.53385 105.945,5.25781 C106.346,4.98177 106.839,4.84375 107.422,4.84375 C107.922,4.84375 108.266,4.86979 108.453,4.92188 C108.682,4.98438 108.906,5.0625 109.125,5.15625 M111.953,3.28125 L111.953,4.98438 L113.984,4.98438 L113.984,5.40625 L111.953,5.40625 L111.953,9.01563 C111.953,9.47396 112.01,9.79688 112.125,9.98438 C112.375,10.3802 112.734,10.5781 113.203,10.5781 L113.984,10.5781 L113.984,11 L113.219,11 C112.729,11 112.313,10.8568 111.969,10.5703 C111.625,10.2839 111.453,9.76563 111.453,9.01563 L111.453,5.40625 L110.734,5.40625 L110.734,4.98438 L111.453,4.98438 L111.453,3.28125 L111.953,3.28125 M120.438,7.75 L120.438,8.0625 L115.875,8.0625 C115.875,9.02083 116.063,9.69792 116.438,10.0938 C116.854,10.5208 117.469,10.7344 118.281,10.7344 C118.5,10.7344 118.786,10.6875 119.141,10.5938 C119.495,10.5 119.849,10.3594 120.203,10.1719 L120.203,10.6875 C119.849,10.8438 119.487,10.9609 119.117,11.0391 C118.747,11.1172 118.453,11.1563 118.234,11.1563 C117.307,11.1563 116.609,10.9063 116.141,10.4063 C115.63,9.875 115.375,9.09375 115.375,8.0625 C115.375,6.98958 115.604,6.1875 116.063,5.65625 C116.542,5.11458 117.208,4.84375 118.063,4.84375 C118.844,4.84375 119.438,5.10417 119.844,5.625 C120.24,6.16667 120.438,6.875 120.438,7.75 M119.938,7.64063 C119.938,6.79688 119.745,6.18229 119.359,5.79688 C119.047,5.45313 118.615,5.28125 118.063,5.28125 C117.469,5.28125 116.969,5.45833 116.563,5.8125 C116.188,6.14583 115.964,6.75521 115.891,7.64063 L119.938,7.64063 M125.781,5.40625 C125.698,5.36458 125.589,5.33333 125.453,5.3125 C125.328,5.29167 125.177,5.28125 125,5.28125 C124.385,5.28125 123.88,5.50521 123.484,5.95313 C123.161,6.31771 123,6.94271 123,7.82813 L123,11 L122.516,11 L122.516,4.98438 L123,4.98438 L123,6.10938 C123.167,5.78646 123.396,5.51563 123.688,5.29688 C124.083,4.99479 124.552,4.84375 125.094,4.84375 C125.24,4.84375 125.365,4.84896 125.469,4.85938 C125.573,4.85938 125.677,4.86979 125.781,4.89063 L125.781,5.40625"/>
</g>

<g fill="none" stroke="#000000" stroke-opacity="1" stroke-width="1" stroke-linecap="square" stroke-linejoin="bevel" transform="matrix(2,0,0,2,471.999,301)"
font-family="sans" font-size="11" font-weight="100" font-style="normal" 
>
</g>

<g fill="none" stroke="#000000" stroke-opacity="1" stroke-width="1" stroke-linecap="square" stroke-linejoin="bevel" transform="matrix(2,0,0,2,471.999,301)"
font-family="Ubuntu" font-size="11" font-weight="400" font-style="normal" 
>
</g>

<g fill="none" stroke="#000000" stroke-opacity="1" stroke-width="1" stroke-linecap="square" stroke-linejoin="bevel" transform="matrix(2,0,0,2,-8e-05,351)"
font-family="Ubuntu" font-size="11" font-weight="400" font-style="normal" 
>
</g>

<g fill="none" stroke="#000000" stroke-opacity="1" stroke-width="1" stroke-linecap="square" stroke-linejoin="bevel" transform="matrix(2,0,0,2,-8e-05,351)"
font-family="Ubuntu" font-size="11" font-weight="400" font-style="normal" 
>
</g>

<g fill="none" stroke="#000000" stroke-opacity="1" stroke-width="1" stroke-linecap="square" stroke-linejoin="bevel" transform="matrix(2,0,0,2,-8e-05,351)"
font-family="Ubuntu" font-size="11" font-weight="400" font-style="normal" 
>
</g>

<g fill="none" stroke="#000000" stroke-opacity="1" stroke-width="1" stroke-linecap="square" stroke-linejoin="round" transform="matrix(2,0,0,2,-8e-05,351)"
font-family="Ubuntu" font-size="11" font-weight="400" font-style="normal" 
>
<ellipse cx="34.447" cy="-126" rx="33.947" ry="17.5"/>
</g>

<g fill="none" stroke="#000000" stroke-opacity="1" stroke-width="1" stroke-linecap="square" stroke-linejoin="bevel" transform="matrix(2,0,0,2,-8e-05,351)"
font-family="Ubuntu" font-size="11" font-weight="400" font-style="normal" 
>
</g>

<g fill="none" stroke="#000000" stroke-opacity="1" stroke-width="1" stroke-linecap="square" stroke-linejoin="bevel" transform="matrix(2,0,0,2,30.6127,85)"
font-family="Ubuntu" font-size="11" font-weight="400" font-style="normal" 
>
</g>

<g fill="none" stroke="#000000" stroke-opacity="1" stroke-width="1" stroke-linecap="square" stroke-linejoin="bevel" transform="matrix(2,0,0,2,30.6127,85)"
font-family="sans" font-size="11" font-weight="100" font-style="normal" 
>
</g>

<g fill="#000000" fill-opacity="1" stroke="#000000" stroke-opacity="1" stroke-width="1" stroke-linecap="square" stroke-linejoin="round" transform="matrix(2,0,0,2,30.6127,85)"
font-family="sans" font-size="11" font-weight="100" font-style="normal" 
>
<path vector-effect="none" fill-rule="nonzero" d="M2.96875,2.98438 L3.53125,2.98438 L0.734375,12.0156 L0.171875,12.0156 L2.96875,2.98438 M5.46875,3.28125 L5.46875,4.98438 L7.5,4.98438 L7.5,5.40625 L5.46875,5.40625 L5.46875,9.01563 C5.46875,9.47396 5.52604,9.79688 5.64063,9.98438 C5.89063,10.3802 6.25,10.5781 6.71875,10.5781 L7.5,10.5781 L7.5,11 L6.73438,11 C6.24479,11 5.82813,10.8568 5.48438,10.5703 C5.14063,10.2839 4.96875,9.76563 4.96875,9.01563 L4.96875,5.40625 L4.25,5.40625 L4.25,4.98438 L4.96875,4.98438 L4.96875,3.28125 L5.46875,3.28125 M13.9531,7.75 L13.9531,8.0625 L9.39063,8.0625 C9.39063,9.02083 9.57813,9.69792 9.95313,10.0938 C10.3698,10.5208 10.9844,10.7344 11.7969,10.7344 C12.0156,10.7344 12.3021,10.6875 12.6563,10.5938 C13.0104,10.5 13.3646,10.3594 13.7188,10.1719 L13.7188,10.6875 C13.3646,10.8438 13.0026,10.9609 12.6328,11.0391 C12.263,11.1172 11.9688,11.1563 11.75,11.1563 C10.8229,11.1563 10.125,10.9063 9.65625,10.4063 C9.14583,9.875 8.89063,9.09375 8.89063,8.0625 C8.89063,6.98958 9.11979,6.1875 9.57813,5.65625 C10.0573,5.11458 10.724,4.84375 11.5781,4.84375 C12.3594,4.84375 12.9531,5.10417 13.3594,5.625 C13.7552,6.16667 13.9531,6.875 13.9531,7.75 M13.4531,7.64063 C13.4531,6.79688 13.2604,6.18229 12.875,5.79688 C12.5625,5.45313 12.1302,5.28125 11.5781,5.28125 C10.9844,5.28125 10.4844,5.45833 10.0781,5.8125 C9.70313,6.14583 9.47917,6.75521 9.40625,7.64063 L13.4531,7.64063 M16.0313,2.64063 L16.5156,2.64063 L16.5156,11 L16.0313,11 L16.0313,2.64063 M23.7656,7.75 L23.7656,8.0625 L19.2031,8.0625 C19.2031,9.02083 19.3906,9.69792 19.7656,10.0938 C20.1823,10.5208 20.7969,10.7344 21.6094,10.7344 C21.8281,10.7344 22.1146,10.6875 22.4688,10.5938 C22.8229,10.5 23.1771,10.3594 23.5313,10.1719 L23.5313,10.6875 C23.1771,10.8438 22.8151,10.9609 22.4453,11.0391 C22.0755,11.1172 21.7813,11.1563 21.5625,11.1563 C20.6354,11.1563 19.9375,10.9063 19.4688,10.4063 C18.9583,9.875 18.7031,9.09375 18.7031,8.0625 C18.7031,6.98958 18.9323,6.1875 19.3906,5.65625 C19.8698,5.11458 20.5365,4.84375 21.3906,4.84375 C22.1719,4.84375 22.7656,5.10417 23.1719,5.625 C23.5677,6.16667 23.7656,6.875 23.7656,7.75 M23.2656,7.64063 C23.2656,6.79688 23.0729,6.18229 22.6875,5.79688 C22.375,5.45313 21.9427,5.28125 21.3906,5.28125 C20.7969,5.28125 20.2969,5.45833 19.8906,5.8125 C19.5156,6.14583 19.2917,6.75521 19.2188,7.64063 L23.2656,7.64063 M29.4219,6.01563 C29.0677,5.52604 28.5833,5.28125 27.9688,5.28125 C27.3542,5.28125 26.8698,5.52604 26.5156,6.01563 C26.1615,6.49479 25.9844,7.15104 25.9844,7.98438 C25.9844,8.83854 26.1615,9.51042 26.5156,10 C26.8698,10.4896 27.3542,10.7344 27.9688,10.7344 C28.5833,10.7344 29.0677,10.4896 29.4219,10 C29.776,9.5 29.9531,8.82813 29.9531,7.98438 C29.9531,7.16146 29.776,6.50521 29.4219,6.01563 M27.9688,4.84375 C28.7292,4.84375 29.3333,5.13021 29.7813,5.70313 C30.2292,6.27604 30.4531,7.03646 30.4531,7.98438 C30.4531,8.97396 30.2292,9.75521 29.7813,10.3281 C29.3333,10.901 28.7292,11.1875 27.9688,11.1875 C27.1875,11.1875 26.5729,10.901 26.125,10.3281 C25.6875,9.75521 25.4688,8.97396 25.4688,7.98438 C25.4688,7.02604 25.6927,6.26302 26.1406,5.69531 C26.5885,5.1276 27.1979,4.84375 27.9688,4.84375 M33.0469,9.64063 L33.0469,13.2813 L32.5625,13.2813 L32.5625,4.98438 L33.0469,4.98438 L33.0469,6.35938 C33.276,5.83854 33.5208,5.47917 33.7813,5.28125 C34.1875,4.98958 34.5729,4.84375 34.9375,4.84375 C35.6458,4.84375 36.237,5.13281 36.7109,5.71094 C37.1849,6.28906 37.4219,7.05208 37.4219,8 C37.4219,8.94792 37.1849,9.71094 36.7109,10.2891 C36.237,10.8672 35.6458,11.1563 34.9375,11.1563 C34.5729,11.1563 34.1875,11.0052 33.7813,10.7031 C33.5208,10.5156 33.276,10.1615 33.0469,9.64063 M36.2813,10.0938 C36.6979,9.67708 36.9063,8.97917 36.9063,8 C36.9063,7.02083 36.6979,6.32292 36.2813,5.90625 C35.8646,5.48958 35.4271,5.28125 34.9688,5.28125 C34.5208,5.28125 34.0885,5.48958 33.6719,5.90625 C33.2656,6.32292 33.0625,7.02083 33.0625,8 C33.0625,8.97917 33.2656,9.67708 33.6719,10.0938 C34.0885,10.5104 34.5208,10.7188 34.9688,10.7188 C35.4271,10.7188 35.8646,10.5104 36.2813,10.0938 "/>
</g>

<g fill="none" stroke="#000000" stroke-opacity="1" stroke-width="1" stroke-linecap="square" stroke-linejoin="bevel" transform="matrix(2,0,0,2,30.6127,85)"
font-family="sans" font-size="11" font-weight="100" font-style="normal" 
>
</g>

<g fill="none" stroke="#000000" stroke-opacity="1" stroke-width="1" stroke-linecap="square" stroke-linejoin="bevel" transform="matrix(2,0,0,2,30.6127,85)"
font-family="Ubuntu" font-size="11" font-weight="400" font-style="normal" 
>
</g>

<g fill="none" stroke="#000000" stroke-opacity="1" stroke-width="1" stroke-linecap="square" stroke-linejoin="bevel" transform="matrix(2,0,0,2,-8e-05,351)"
font-family="Ubuntu" font-size="11" font-weight="400" font-style="normal" 
>
</g>

<g fill="none" stroke="#000000" stroke-opacity="1" stroke-width="1" stroke-linecap="square" stroke-linejoin="bevel" transform="matrix(2,0,0,2,-8e-05,351)"
font-family="Ubuntu" font-size="11" font-weight="400" font-style="normal" 
>
</g>

<g fill="none" stroke="#000000" stroke-opacity="1" stroke-width="1" stroke-linecap="square" stroke-linejoin="bevel" transform="matrix(2,0,0,2,-8e-05,351)"
font-family="Ubuntu" font-size="11" font-weight="400" font-style="normal" 
>
</g>

<g fill="none" stroke="#000000" stroke-opacity="1" stroke-width="1" stroke-linecap="square" stroke-linejoin="round" transform="matrix(2,0,0,2,-8e-05,351)"
font-family="Ubuntu" font-size="11" font-weight="400" font-style="normal" 
>
<ellipse cx="298.89" cy="-72" rx="31.9972" ry="17.5"/>
</g>

<g fill="none" stroke="#000000" stroke-opacity="1" stroke-width="1" stroke-linecap="square" stroke-linejoin="bevel" transform="matrix(2,0,0,2,-8e-05,351)"
font-family="Ubuntu" font-size="11" font-weight="400" font-style="normal" 
>
</g>

<g fill="none" stroke="#000000" stroke-opacity="1" stroke-width="1" stroke-linecap="square" stroke-linejoin="bevel" transform="matrix(2,0,0,2,563.889,193)"
font-family="Ubuntu" font-size="11" font-weight="400" font-style="normal" 
>
</g>

<g fill="none" stroke="#000000" stroke-opacity="1" stroke-width="1" stroke-linecap="square" stroke-linejoin="bevel" transform="matrix(2,0,0,2,563.889,193)"
font-family="sans" font-size="11" font-weight="100" font-style="normal" 
>
</g>

<g fill="#000000" fill-opacity="1" stroke="#000000" stroke-opacity="1" stroke-width="1" stroke-linecap="square" stroke-linejoin="round" transform="matrix(2,0,0,2,563.889,193)"
font-family="sans" font-size="11" font-weight="100" font-style="normal" 
>
<path vector-effect="none" fill-rule="nonzero" d="M2.96875,2.98438 L3.53125,2.98438 L0.734375,12.0156 L0.171875,12.0156 L2.96875,2.98438 M9.0625,5.28125 L9.0625,5.79688 C8.77083,5.61979 8.52604,5.5 8.32813,5.4375 C7.99479,5.33333 7.67708,5.28125 7.375,5.28125 C6.51042,5.28125 5.89063,5.5026 5.51563,5.94531 C5.14063,6.38802 4.95313,7.07292 4.95313,8 C4.95313,8.9375 5.14063,9.6276 5.51563,10.0703 C5.89063,10.513 6.51042,10.7344 7.375,10.7344 C7.66667,10.7344 7.94792,10.6927 8.21875,10.6094 C8.51042,10.5365 8.79167,10.4219 9.0625,10.2656 L9.0625,10.7656 C8.79167,10.901 8.51042,11 8.21875,11.0625 C7.91667,11.125 7.61979,11.1563 7.32813,11.1563 C6.45313,11.1563 5.75521,10.9167 5.23438,10.4375 C4.71354,9.95833 4.45313,9.14323 4.45313,7.99219 C4.45313,6.84115 4.71354,6.02604 5.23438,5.54688 C5.75521,5.07813 6.45313,4.84375 7.32813,4.84375 C7.61979,4.84375 7.92708,4.88542 8.25,4.96875 C8.57292,5.04167 8.84375,5.14583 9.0625,5.28125 M11,2.64063 L11.4844,2.64063 L11.4844,11 L11,11 L11,2.64063 M14.0313,4.98438 L14.5313,4.98438 L14.5313,11 L14.0313,11 L14.0313,4.98438 M14.0313,2.64063 L14.5313,2.64063 L14.5313,3.3125 L14.0313,3.3125 L14.0313,2.64063 M21.7813,7.75 L21.7813,8.0625 L17.2188,8.0625 C17.2188,9.02083 17.4063,9.69792 17.7813,10.0938 C18.1979,10.5208 18.8125,10.7344 19.625,10.7344 C19.8438,10.7344 20.1302,10.6875 20.4844,10.5938 C20.8385,10.5 21.1927,10.3594 21.5469,10.1719 L21.5469,10.6875 C21.1927,10.8438 20.8307,10.9609 20.4609,11.0391 C20.0911,11.1172 19.7969,11.1563 19.5781,11.1563 C18.651,11.1563 17.9531,10.9063 17.4844,10.4063 C16.974,9.875 16.7188,9.09375 16.7188,8.0625 C16.7188,6.98958 16.9479,6.1875 17.4063,5.65625 C17.8854,5.11458 18.5521,4.84375 19.4063,4.84375 C20.1875,4.84375 20.7813,5.10417 21.1875,5.625 C21.5833,6.16667 21.7813,6.875 21.7813,7.75 M21.2813,7.64063 C21.2813,6.79688 21.0885,6.18229 20.7031,5.79688 C20.3906,5.45313 19.9583,5.28125 19.4063,5.28125 C18.8125,5.28125 18.3125,5.45833 17.9063,5.8125 C17.5313,6.14583 17.3073,6.75521 17.2344,7.64063 L21.2813,7.64063 M28.4063,7.375 L28.4063,11 L27.9063,11 L27.9063,7.40625 C27.9063,6.625 27.7813,6.07552 27.5313,5.75781 C27.2813,5.4401 26.9115,5.28125 26.4219,5.28125 C25.849,5.28125 25.3646,5.45313 24.9688,5.79688 C24.5521,6.14063 24.3438,6.73958 24.3438,7.59375 L24.3438,11 L23.8594,11 L23.8594,4.98438 L24.3438,4.98438 L24.3438,6.10938 C24.5208,5.74479 24.7552,5.46875 25.0469,5.28125 C25.4635,4.98958 25.9271,4.84375 26.4375,4.84375 C27.0417,4.84375 27.5208,5.04688 27.875,5.45313 C28.2292,5.84896 28.4063,6.48958 28.4063,7.375 M31.3438,3.28125 L31.3438,4.98438 L33.375,4.98438 L33.375,5.40625 L31.3438,5.40625 L31.3438,9.01563 C31.3438,9.47396 31.401,9.79688 31.5156,9.98438 C31.7656,10.3802 32.125,10.5781 32.5938,10.5781 L33.375,10.5781 L33.375,11 L32.6094,11 C32.1198,11 31.7031,10.8568 31.3594,10.5703 C31.0156,10.2839 30.8438,9.76563 30.8438,9.01563 L30.8438,5.40625 L30.125,5.40625 L30.125,4.98438 L30.8438,4.98438 L30.8438,3.28125 L31.3438,3.28125"/>
</g>

<g fill="none" stroke="#000000" stroke-opacity="1" stroke-width="1" stroke-linecap="square" stroke-linejoin="bevel" transform="matrix(2,0,0,2,563.889,193)"
font-family="sans" font-size="11" font-weight="100" font-style="normal" 
>
</g>

<g fill="none" stroke="#000000" stroke-opacity="1" stroke-width="1" stroke-linecap="square" stroke-linejoin="bevel" transform="matrix(2,0,0,2,563.889,193)"
font-family="Ubuntu" font-size="11" font-weight="400" font-style="normal" 
>
</g>

<g fill="none" stroke="#000000" stroke-opacity="1" stroke-width="1" stroke-linecap="square" stroke-linejoin="bevel" transform="matrix(2,0,0,2,-8e-05,351)"
font-family="Ubuntu" font-size="11" font-weight="400" font-style="normal" 
>
</g>

<g fill="none" stroke="#000000" stroke-opacity="1" stroke-width="1" stroke-linecap="square" stroke-linejoin="bevel" transform="matrix(2,0,0,2,-8e-05,351)"
font-family="Ubuntu" font-size="11" font-weight="400" font-style="normal" 
>
</g>

<g fill="none" stroke="#000000" stroke-opacity="1" stroke-width="1" stroke-linecap="square" stroke-linejoin="bevel" transform="matrix(2,0,0,2,-8e-05,351)"
font-family="Ubuntu" font-size="11" font-weight="400" font-style="normal" 
>
</g>

<g fill="none" stroke="#000000" stroke-opacity="1" stroke-width="1" stroke-linecap="square" stroke-linejoin="round" transform="matrix(2,0,0,2,-8e-05,351)"
font-family="Ubuntu" font-size="11" font-weight="400" font-style="normal" 
>
<path vector-effect="none" fill-rule="evenodd" d="M69.06,-126 C70.806,-126 72.581,-126 74.377,-126 "/>
</g>

<g fill="none" stroke="#000000" stroke-opacity="1" stroke-width="1" stroke-linecap="square" stroke-linejoin="bevel" transform="matrix(2,0,0,2,-8e-05,351)"
font-family="Ubuntu" font-size="11" font-weight="400" font-style="normal" 
>
</g>

<g fill="none" stroke="#000000" stroke-opacity="1" stroke-width="1" stroke-linecap="square" stroke-linejoin="bevel" transform="matrix(2,0,0,2,-8e-05,351)"
font-family="Ubuntu" font-size="11" font-weight="400" font-style="normal" 
>
</g>

<g fill="#000000" fill-opacity="1" stroke="#000000" stroke-opacity="1" stroke-width="1" stroke-linecap="square" stroke-linejoin="round" transform="matrix(2,0,0,2,-8e-05,351)"
font-family="Ubuntu" font-size="11" font-weight="400" font-style="normal" 
>
<path vector-effect="none" fill-rule="evenodd" d="M74.377,-126 L74.377,-122.345 L84.819,-126 L74.377,-129.655 L74.377,-126"/>
</g>

<g fill="none" stroke="#000000" stroke-opacity="1" stroke-width="1" stroke-linecap="square" stroke-linejoin="bevel" transform="matrix(2,0,0,2,-8e-05,351)"
font-family="Ubuntu" font-size="11" font-weight="400" font-style="normal" 
>
</g>

<g fill="none" stroke="#000000" stroke-opacity="1" stroke-width="1" stroke-linecap="square" stroke-linejoin="bevel" transform="matrix(2,0,0,2,-8e-05,351)"
font-family="Ubuntu" font-size="11" font-weight="400" font-style="normal" 
>
</g>

<g fill="none" stroke="#000000" stroke-opacity="1" stroke-width="1" stroke-linecap="square" stroke-linejoin="bevel" transform="matrix(2,0,0,2,-8e-05,351)"
font-family="Ubuntu" font-size="11" font-weight="400" font-style="normal" 
>
</g>

<g fill="none" stroke="#000000" stroke-opacity="1" stroke-width="1" stroke-linecap="square" stroke-linejoin="bevel" transform="matrix(2,0,0,2,-8e-05,351)"
font-family="Ubuntu" font-size="11" font-weight="400" font-style="normal" 
>
</g>

<g fill="none" stroke="#000000" stroke-opacity="1" stroke-width="1" stroke-linecap="square" stroke-linejoin="round" transform="matrix(2,0,0,2,-8e-05,351)"
font-family="Ubuntu" font-size="11" font-weight="400" font-style="normal" 
>
<path vector-effect="none" fill-rule="evenodd" d="M192.28,-126 C214.93,-126 240.72,-126 261.26,-126 "/>
</g>

<g fill="none" stroke="#000000" stroke-opacity="1" stroke-width="1" stroke-linecap="square" stroke-linejoin="bevel" transform="matrix(2,0,0,2,-8e-05,351)"
font-family="Ubuntu" font-size="11" font-weight="400" font-style="normal" 
>
</g>

<g fill="none" stroke="#000000" stroke-opacity="1" stroke-width="1" stroke-linecap="square" stroke-linejoin="bevel" transform="matrix(2,0,0,2,-8e-05,351)"
font-family="Ubuntu" font-size="11" font-weight="400" font-style="normal" 
>
</g>

<g fill="#000000" fill-opacity="1" stroke="#000000" stroke-opacity="1" stroke-width="1" stroke-linecap="square" stroke-linejoin="round" transform="matrix(2,0,0,2,-8e-05,351)"
font-family="Ubuntu" font-size="11" font-weight="400" font-style="normal" 
>
<path vector-effect="none" fill-rule="evenodd" d="M261.26,-126 L261.26,-122.423 L271.48,-126 L261.26,-129.577 L261.26,-126"/>
</g>

<g fill="none" stroke="#000000" stroke-opacity="1" stroke-width="1" stroke-linecap="square" stroke-linejoin="bevel" transform="matrix(2,0,0,2,-8e-05,351)"
font-family="Ubuntu" font-size="11" font-weight="400" font-style="normal" 
>
</g>

<g fill="none" stroke="#000000" stroke-opacity="1" stroke-width="1" stroke-linecap="square" stroke-linejoin="bevel" transform="matrix(2,0,0,2,-8e-05,351)"
font-family="Ubuntu" font-size="11" font-weight="400" font-style="normal" 
>
</g>

<g fill="none" stroke="#000000" stroke-opacity="1" stroke-width="1" stroke-linecap="square" stroke-linejoin="bevel" transform="matrix(2,0,0,2,-8e-05,351)"
font-family="Ubuntu" font-size="11" font-weight="400" font-style="normal" 
>
</g>

<g fill="none" stroke="#000000" stroke-opacity="1" stroke-width="1" stroke-linecap="square" stroke-linejoin="bevel" transform="matrix(2,0,0,2,-8e-05,351)"
font-family="Ubuntu" font-size="11" font-weight="400" font-style="normal" 
>
</g>

<g fill="none" stroke="#000000" stroke-opacity="1" stroke-width="1" stroke-linecap="square" stroke-linejoin="round" transform="matrix(2,0,0,2,-8e-05,351)"
font-family="Ubuntu" font-size="11" font-weight="400" font-style="normal" 
>
<path vector-effect="none" fill-rule="evenodd" d="M269.6,-80.03 C251.67,-85.109 228.32,-92.015 207.89,-99 C203.04,-100.66 198.03,-102.45 193.02,-104.3 "/>
</g>

<g fill="none" stroke="#000000" stroke-opacity="1" stroke-width="1" stroke-linecap="square" stroke-linejoin="bevel" transform="matrix(2,0,0,2,-8e-05,351)"
font-family="Ubuntu" font-size="11" font-weight="400" font-style="normal" 
>
</g>

<g fill="none" stroke="#000000" stroke-opacity="1" stroke-width="1" stroke-linecap="square" stroke-linejoin="bevel" transform="matrix(2,0,0,2,-8e-05,351)"
font-family="Ubuntu" font-size="11" font-weight="400" font-style="normal" 
>
</g>

<g fill="#000000" fill-opacity="1" stroke="#000000" stroke-opacity="1" stroke-width="1" stroke-linecap="square" stroke-linejoin="round" transform="matrix(2,0,0,2,-8e-05,351)"
font-family="Ubuntu" font-size="11" font-weight="400" font-style="normal" 
>
<path vector-effect="none" fill-rule="evenodd" d="M193.02,-104.3 L194.273,-107.656 L183.43,-107.88 L191.767,-100.944 L193.02,-104.3"/>
</g>

<g fill="none" stroke="#000000" stroke-opacity="1" stroke-width="1" stroke-linecap="square" stroke-linejoin="bevel" transform="matrix(2,0,0,2,-8e-05,351)"
font-family="Ubuntu" font-size="11" font-weight="400" font-style="normal" 
>
</g>

<g fill="none" stroke="#000000" stroke-opacity="1" stroke-width="1" stroke-linecap="square" stroke-linejoin="bevel" transform="matrix(2,0,0,2,-8e-05,351)"
font-family="Ubuntu" font-size="11" font-weight="400" font-style="normal" 
>
</g>

<g fill="none" stroke="#000000" stroke-opacity="1" stroke-width="1" stroke-linecap="square" stroke-linejoin="bevel" transform="matrix(2,0,0,2,-8e-05,351)"
font-family="Ubuntu" font-size="11" font-weight="400" font-style="normal" 
>
</g>

<g fill="none" stroke="#000000" stroke-opacity="1" stroke-width="1" stroke-linecap="square" stroke-linejoin="bevel" transform="matrix(2,0,0,2,-8e-05,351)"
font-family="Ubuntu" font-size="11" font-weight="400" font-style="normal" 
>
</g>

<g fill="none" stroke="#000000" stroke-opacity="1" stroke-width="1" stroke-linecap="square" stroke-linejoin="round" transform="matrix(2,0,0,2,-8e-05,351)"
font-family="Ubuntu" font-size="11" font-weight="400" font-style="normal" 
>
<path vector-effect="none" fill-rule="evenodd" d="M180.46,-55.022 C189.46,-51.567 198.95,-48.058 207.89,-45 C217.13,-41.841 226.97,-38.698 236.63,-35.733 "/>
</g>

<g fill="none" stroke="#000000" stroke-opacity="1" stroke-width="1" stroke-linecap="square" stroke-linejoin="bevel" transform="matrix(2,0,0,2,-8e-05,351)"
font-family="Ubuntu" font-size="11" font-weight="400" font-style="normal" 
>
</g>

<g fill="none" stroke="#000000" stroke-opacity="1" stroke-width="1" stroke-linecap="square" stroke-linejoin="bevel" transform="matrix(2,0,0,2,-8e-05,351)"
font-family="Ubuntu" font-size="11" font-weight="400" font-style="normal" 
>
</g>

<g fill="#000000" fill-opacity="1" stroke="#000000" stroke-opacity="1" stroke-width="1" stroke-linecap="square" stroke-linejoin="round" transform="matrix(2,0,0,2,-8e-05,351)"
font-family="Ubuntu" font-size="11" font-weight="400" font-style="normal" 
>
<path vector-effect="none" fill-rule="evenodd" d="M236.63,-35.733 L235.615,-32.38 L246.21,-32.833 L237.645,-39.086 L236.63,-35.733"/>
</g>

<g fill="none" stroke="#000000" stroke-opacity="1" stroke-width="1" stroke-linecap="square" stroke-linejoin="bevel" transform="matrix(2,0,0,2,-8e-05,351)"
font-family="Ubuntu" font-size="11" font-weight="400" font-style="normal" 
>
</g>

<g fill="none" stroke="#000000" stroke-opacity="1" stroke-width="1" stroke-linecap="square" stroke-linejoin="bevel" transform="matrix(2,0,0,2,-8e-05,351)"
font-family="Ubuntu" font-size="11" font-weight="400" font-style="normal" 
>
</g>

<g fill="none" stroke="#000000" stroke-opacity="1" stroke-width="1" stroke-linecap="square" stroke-linejoin="bevel" transform="matrix(2,0,0,2,-8e-05,351)"
font-family="Ubuntu" font-size="11" font-weight="400" font-style="normal" 
>
</g>

<g fill="none" stroke="#000000" stroke-opacity="1" stroke-width="1" stroke-linecap="square" stroke-linejoin="bevel" transform="matrix(2,0,0,2,-8e-05,351)"
font-family="Ubuntu" font-size="11" font-weight="400" font-style="normal" 
>
</g>

<g fill="none" stroke="#000000" stroke-opacity="1" stroke-width="1" stroke-linecap="square" stroke-linejoin="round" transform="matrix(2,0,0,2,-8e-05,351)"
font-family="Ubuntu" font-size="11" font-weight="400" font-style="normal" 
>
<path vector-effect="none" fill-rule="evenodd" d="M180.56,-72 C203.94,-72 232.94,-72 256.37,-72 "/>
</g>

<g fill="none" stroke="#000000" stroke-opacity="1" stroke-width="1" stroke-linecap="square" stroke-linejoin="bevel" transform="matrix(2,0,0,2,-8e-05,351)"
font-family="Ubuntu" font-size="11" font-weight="400" font-style="normal" 
>
</g>

<g fill="none" stroke="#000000" stroke-opacity="1" stroke-width="1" stroke-linecap="square" stroke-linejoin="bevel" transform="matrix(2,0,0,2,-8e-05,351)"
font-family="Ubuntu" font-size="11" font-weight="400" font-style="normal" 
>
</g>

<g fill="#000000" fill-opacity="1" stroke="#000000" stroke-opacity="1" stroke-width="1" stroke-linecap="square" stroke-linejoin="round" transform="matrix(2,0,0,2,-8e-05,351)"
font-family="Ubuntu" font-size="11" font-weight="400" font-style="normal" 
>
<path vector-effect="none" fill-rule="evenodd" d="M256.37,-72 L256.37,-68.5 L266.37,-72 L256.37,-75.5 L256.37,-72"/>
</g>

<g fill="none" stroke="#000000" stroke-opacity="1" stroke-width="1" stroke-linecap="square" stroke-linejoin="bevel" transform="matrix(2,0,0,2,-8e-05,351)"
font-family="Ubuntu" font-size="11" font-weight="400" font-style="normal" 
>
</g>

<g fill="none" stroke="#000000" stroke-opacity="1" stroke-width="1" stroke-linecap="square" stroke-linejoin="bevel" transform="matrix(2,0,0,2,-8e-05,351)"
font-family="Ubuntu" font-size="11" font-weight="400" font-style="normal" 
>
</g>

<g fill="none" stroke="#000000" stroke-opacity="1" stroke-width="1" stroke-linecap="square" stroke-linejoin="bevel" transform="matrix(2,0,0,2,-8e-05,351)"
font-family="Ubuntu" font-size="11" font-weight="400" font-style="normal" 
>
</g>

<g fill="none" stroke="#000000" stroke-opacity="1" stroke-width="1" stroke-linecap="square" stroke-linejoin="bevel" transform="matrix(2,0,0,2,-8e-05,351)"
font-family="Ubuntu" font-size="11" font-weight="400" font-style="normal" 
>
</g>

<g fill="none" stroke="#000000" stroke-opacity="1" stroke-width="1" stroke-linecap="square" stroke-linejoin="round" transform="matrix(2,0,0,2,-8e-05,351)"
font-family="Ubuntu" font-size="11" font-weight="400" font-style="normal" 
>
<path vector-effect="none" fill-rule="evenodd" d="M273.61,-119.1 C255.25,-113.94 229.88,-106.52 207.89,-99 C202.03,-96.993 195.92,-94.792 189.87,-92.54 "/>
</g>

<g fill="none" stroke="#000000" stroke-opacity="1" stroke-width="1" stroke-linecap="square" stroke-linejoin="bevel" transform="matrix(2,0,0,2,-8e-05,351)"
font-family="Ubuntu" font-size="11" font-weight="400" font-style="normal" 
>
</g>

<g fill="none" stroke="#000000" stroke-opacity="1" stroke-width="1" stroke-linecap="square" stroke-linejoin="bevel" transform="matrix(2,0,0,2,-8e-05,351)"
font-family="Ubuntu" font-size="11" font-weight="400" font-style="normal" 
>
</g>

<g fill="#000000" fill-opacity="1" stroke="#000000" stroke-opacity="1" stroke-width="1" stroke-linecap="square" stroke-linejoin="round" transform="matrix(2,0,0,2,-8e-05,351)"
font-family="Ubuntu" font-size="11" font-weight="400" font-style="normal" 
>
<path vector-effect="none" fill-rule="evenodd" d="M189.87,-92.54 L188.623,-95.8335 L180.46,-88.978 L191.117,-89.2465 L189.87,-92.54"/>
</g>

<g fill="none" stroke="#000000" stroke-opacity="1" stroke-width="1" stroke-linecap="square" stroke-linejoin="bevel" transform="matrix(2,0,0,2,-8e-05,351)"
font-family="Ubuntu" font-size="11" font-weight="400" font-style="normal" 
>
</g>

<g fill="none" stroke="#000000" stroke-opacity="1" stroke-width="1" stroke-linecap="square" stroke-linejoin="bevel" transform="matrix(1,0,0,1,0,0)"
font-family="Ubuntu" font-size="11" font-weight="400" font-style="normal" 
>
</g>
</g>
</svg>
